<svg width="516" height="90" viewBox="0 0 516 90" fill="none" xmlns="http://www.w3.org/2000/svg">
<rect width="516" height="90" fill="#1E1E1E"/>
<path d="M0 0.599999H7.2V16.2H0V0.599999ZM7.19531 0.599999H14.3953V16.2H7.19531V0.599999ZM13.9826 7.176H19.2146V16.2H18.3986V7.992H13.9826V7.176ZM13.9826 8.808H17.5826V16.2H16.7666V9.624H13.9826V8.808ZM35.9766 0.599999H43.1766V16.2H35.9766V0.599999ZM43.1719 0.599999H50.3719V16.2H43.1719V0.599999ZM49.9592 7.176H55.1912V16.2H54.3752V7.992H49.9592V7.176ZM49.9592 8.808H53.5592V16.2H52.7432V9.624H49.9592V8.808ZM64.7578 0.599999H71.9578V16.2H64.7578V0.599999ZM71.9531 0.599999H79.1531V16.2H71.9531V0.599999ZM79.1484 0.599999H86.3484V16.2H79.1484V0.599999ZM86.3438 0.599999H93.5438V16.2H86.3438V0.599999ZM93.5391 0.599999H100.739V16.2H93.5391V0.599999ZM100.326 7.176H105.558V16.2H104.742V7.992H100.326V7.176ZM100.326 8.808H103.926V16.2H103.11V9.624H100.326V8.808ZM115.125 0.599999H122.325V16.2H115.125V0.599999ZM122.32 0.599999H129.52V16.2H122.32V0.599999ZM129.516 0.599999H136.716V16.2H129.516V0.599999ZM136.711 0.599999H143.911V16.2H136.711V0.599999ZM143.906 0.599999H151.106V16.2H143.906V0.599999ZM151.102 0.599999H158.302V16.2H151.102V0.599999ZM157.889 7.176H163.121V16.2H162.305V7.992H157.889V7.176ZM157.889 8.808H161.489V16.2H160.673V9.624H157.889V8.808ZM172.688 0.599999H179.888V16.2H172.688V0.599999ZM179.883 0.599999H187.083V16.2H179.883V0.599999ZM187.078 0.599999H194.278V16.2H187.078V0.599999ZM194.273 0.599999H201.473V16.2H194.273V0.599999ZM201.469 0.599999H208.669V16.2H201.469V0.599999ZM208.664 0.599999H215.864V16.2H208.664V0.599999ZM215.859 0.599999H223.059V16.2H215.859V0.599999ZM222.647 7.176H227.879V16.2H227.063V7.992H222.647V7.176ZM222.647 8.808H226.247V16.2H225.431V9.624H222.647V8.808ZM230.25 0.599999H237.45V16.2H230.25V0.599999ZM237.445 0.599999H244.645V16.2H237.445V0.599999ZM244.233 7.176H249.465V16.2H248.649V7.992H244.233V7.176ZM244.233 8.808H247.833V16.2H247.017V9.624H244.233V8.808ZM251.836 0.599999H259.036V16.2H251.836V0.599999ZM259.031 0.599999H266.231V16.2H259.031V0.599999ZM266.227 0.599999H273.427V16.2H266.227V0.599999ZM273.014 7.176H278.246V16.2H277.43V7.992H273.014V7.176ZM273.014 8.808H276.614V16.2H275.798V9.624H273.014V8.808ZM302.203 0.599999H309.403V16.2H302.203V0.599999ZM309.398 0.599999H316.598V16.2H309.398V0.599999ZM316.594 0.599999H323.794V16.2H316.594V0.599999ZM323.381 7.176H328.613V16.2H327.797V7.992H323.381V7.176ZM323.381 8.808H326.981V16.2H326.165V9.624H323.381V8.808ZM330.984 0.599999H338.184V16.2H330.984V0.599999ZM338.18 0.599999H345.38V16.2H338.18V0.599999ZM345.375 0.599999H352.575V16.2H345.375V0.599999ZM352.57 0.599999H359.77V16.2H352.57V0.599999ZM359.766 0.599999H366.966V16.2H359.766V0.599999ZM366.961 0.599999H374.161V16.2H366.961V0.599999ZM373.748 7.176H378.98V16.2H378.164V7.992H373.748V7.176ZM373.748 8.808H377.348V16.2H376.532V9.624H373.748V8.808ZM395.742 0.599999H402.942V16.2H395.742V0.599999ZM402.938 0.599999H410.138V16.2H402.938V0.599999ZM410.133 0.599999H417.333V16.2H410.133V0.599999ZM417.328 0.599999H424.528V16.2H417.328V0.599999ZM424.523 0.599999H431.723V16.2H424.523V0.599999ZM431.311 7.176H436.543V16.2H435.727V7.992H431.311V7.176ZM431.311 8.808H434.911V16.2H434.095V9.624H431.311V8.808ZM446.109 0.599999H453.309V16.2H446.109V0.599999ZM453.305 0.599999H460.505V16.2H453.305V0.599999ZM460.5 0.599999H467.7V16.2H460.5V0.599999ZM467.287 7.176H472.519V16.2H471.703V7.992H467.287V7.176ZM467.287 8.808H470.887V16.2H470.071V9.624H467.287V8.808ZM496.477 0.599999H503.677V16.2H496.477V0.599999ZM503.672 0.599999H510.872V16.2H503.672V0.599999ZM510.459 7.176H515.691V16.2H514.875V7.992H510.459V7.176ZM510.459 8.808H514.059V16.2H513.243V9.624H510.459V8.808ZM0 16.6H7.2V32.2H0V16.6ZM7.19531 16.6H14.3953V32.2H7.19531V16.6ZM16.7666 16.6H17.5826V32.2H16.7666V16.6ZM18.3986 16.6H19.2146V32.2H18.3986V16.6ZM35.9766 16.6H43.1766V32.2H35.9766V16.6ZM43.1719 16.6H50.3719V32.2H43.1719V16.6ZM52.7432 16.6H53.5592V32.2H52.7432V16.6ZM54.3752 16.6H55.1912V32.2H54.3752V16.6ZM57.5625 16.6H64.7625V32.2H57.5625V16.6ZM64.7578 16.6H71.9578V32.2H64.7578V16.6ZM74.3291 23.176H79.5611V23.992H75.1451V32.2H74.3291V23.176ZM75.9611 24.808H79.5611V25.624H76.7771V32.2H75.9611V24.808ZM78.7404 23.176H86.7564V23.992H78.7404V23.176ZM78.7404 24.808H86.7564V25.624H78.7404V24.808ZM85.9357 23.176H93.9518V23.992H85.9357V23.176ZM85.9357 24.808H93.9518V25.624H85.9357V24.808ZM93.5391 16.6H100.739V32.2H93.5391V16.6ZM100.734 16.6H107.934V32.2H100.734V16.6ZM107.522 23.176H112.754V32.2H111.938V23.992H107.522V23.176ZM107.522 24.808H111.122V32.2H110.306V25.624H107.522V24.808ZM115.125 16.6H122.325V32.2H115.125V16.6ZM122.32 16.6H129.52V32.2H122.32V16.6ZM131.892 23.176H137.124V23.992H132.708V32.2H131.892V23.176ZM133.524 24.808H137.124V25.624H134.34V32.2H133.524V24.808ZM136.303 23.176H144.319V23.992H136.303V23.176ZM136.303 24.808H144.319V25.624H136.303V24.808ZM143.498 23.176H151.514V23.992H143.498V23.176ZM143.498 24.808H151.514V25.624H143.498V24.808ZM151.102 16.6H158.302V32.2H151.102V16.6ZM158.297 16.6H165.497V32.2H158.297V16.6ZM165.084 23.176H170.316V32.2H169.5V23.992H165.084V23.176ZM165.084 24.808H168.684V32.2H167.868V25.624H165.084V24.808ZM172.688 16.6H179.888V32.2H172.688V16.6ZM179.883 16.6H187.083V32.2H179.883V16.6ZM189.454 23.176H194.686V23.992H190.27V32.2H189.454V23.176ZM191.086 24.808H194.686V25.624H191.902V32.2H191.086V24.808ZM193.865 23.176H201.881V23.992H193.865V23.176ZM193.865 24.808H201.881V25.624H193.865V24.808ZM201.061 23.176H209.077V23.992H201.061V23.176ZM201.061 24.808H209.077V25.624H201.061V24.808ZM208.256 23.176H216.272V23.992H208.256V23.176ZM208.256 24.808H216.272V25.624H208.256V24.808ZM215.451 23.176H223.467V23.992H215.451V23.176ZM215.451 24.808H223.467V25.624H215.451V24.808ZM222.647 24.808H227.063V16.6H227.879V25.624H222.647V24.808ZM222.647 23.176H225.431V16.6H226.247V23.992H222.647V23.176ZM230.25 16.6H237.45V32.2H230.25V16.6ZM237.445 16.6H244.645V32.2H237.445V16.6ZM247.017 16.6H247.833V32.2H247.017V16.6ZM248.649 16.6H249.465V32.2H248.649V16.6ZM251.836 16.6H259.036V32.2H251.836V16.6ZM259.031 16.6H266.231V32.2H259.031V16.6ZM266.227 16.6H273.427V32.2H266.227V16.6ZM273.422 16.6H280.622V32.2H273.422V16.6ZM280.209 23.176H285.441V32.2H284.625V23.992H280.209V23.176ZM280.209 24.808H283.809V32.2H282.993V25.624H280.209V24.808ZM295.008 16.6H302.208V32.2H295.008V16.6ZM302.203 16.6H309.403V32.2H302.203V16.6ZM309.398 16.6H316.598V32.2H309.398V16.6ZM316.594 16.6H323.794V32.2H316.594V16.6ZM326.165 16.6H326.981V32.2H326.165V16.6ZM327.797 16.6H328.613V32.2H327.797V16.6ZM330.984 16.6H338.184V32.2H330.984V16.6ZM338.18 16.6H345.38V32.2H338.18V16.6ZM347.751 23.176H352.983V23.992H348.567V32.2H347.751V23.176ZM349.383 24.808H352.983V25.624H350.199V32.2H349.383V24.808ZM352.162 23.176H360.178V23.992H352.162V23.176ZM352.162 24.808H360.178V25.624H352.162V24.808ZM359.358 23.176H367.374V23.992H359.358V23.176ZM359.358 24.808H367.374V25.624H359.358V24.808ZM366.961 16.6H374.161V32.2H366.961V16.6ZM374.156 16.6H381.356V32.2H374.156V16.6ZM380.944 23.176H386.176V32.2H385.36V23.992H380.944V23.176ZM380.944 24.808H384.544V32.2H383.728V25.624H380.944V24.808ZM388.547 16.6H395.747V32.2H388.547V16.6ZM395.742 16.6H402.942V32.2H395.742V16.6ZM405.314 23.176H410.546V23.992H406.13V32.2H405.314V23.176ZM406.946 24.808H410.546V25.624H407.762V32.2H406.946V24.808ZM409.725 23.176H417.741V23.992H409.725V23.176ZM409.725 24.808H417.741V25.624H409.725V24.808ZM416.92 23.176H424.936V23.992H416.92V23.176ZM416.92 24.808H424.936V25.624H416.92V24.808ZM424.523 16.6H431.723V32.2H424.523V16.6ZM431.719 16.6H438.919V32.2H431.719V16.6ZM438.506 23.176H443.738V32.2H442.922V23.992H438.506V23.176ZM438.506 24.808H442.106V32.2H441.29V25.624H438.506V24.808ZM446.109 16.6H453.309V32.2H446.109V16.6ZM453.305 16.6H460.505V32.2H453.305V16.6ZM460.5 16.6H467.7V32.2H460.5V16.6ZM467.695 16.6H474.895V32.2H467.695V16.6ZM474.483 23.176H479.715V32.2H478.899V23.992H474.483V23.176ZM474.483 24.808H478.083V32.2H477.267V25.624H474.483V24.808ZM496.477 16.6H503.677V32.2H496.477V16.6ZM503.672 16.6H510.872V32.2H503.672V16.6ZM513.243 16.6H514.059V32.2H513.243V16.6ZM514.875 16.6H515.691V32.2H514.875V16.6ZM0 32.6H7.2V48.2H0V32.6ZM7.19531 32.6H14.3953V48.2H7.19531V32.6ZM14.3906 32.6H21.5906V48.2H14.3906V32.6ZM21.5859 32.6H28.7859V48.2H21.5859V32.6ZM28.7812 32.6H35.9813V48.2H28.7812V32.6ZM35.9766 32.6H43.1766V48.2H35.9766V32.6ZM43.1719 32.6H50.3719V48.2H43.1719V32.6ZM52.7432 32.6H53.5592V48.2H52.7432V32.6ZM54.3752 32.6H55.1912V48.2H54.3752V32.6ZM57.5625 32.6H64.7625V48.2H57.5625V32.6ZM64.7578 32.6H71.9578V48.2H64.7578V32.6ZM71.9531 32.6H79.1531V48.2H71.9531V32.6ZM79.1484 32.6H86.3484V48.2H79.1484V32.6ZM86.3438 32.6H93.5438V48.2H86.3438V32.6ZM93.5391 32.6H100.739V48.2H93.5391V32.6ZM100.734 32.6H107.934V48.2H100.734V32.6ZM110.306 32.6H111.122V48.2H110.306V32.6ZM111.938 32.6H112.754V48.2H111.938V32.6ZM115.125 32.6H122.325V48.2H115.125V32.6ZM122.32 32.6H129.52V48.2H122.32V32.6ZM129.516 32.6H136.716V48.2H129.516V32.6ZM136.711 32.6H143.911V48.2H136.711V32.6ZM143.906 32.6H151.106V48.2H143.906V32.6ZM151.102 32.6H158.302V48.2H151.102V32.6ZM160.673 39.176H165.905V39.992H161.489V48.2H160.673V39.176ZM162.305 40.808H165.905V41.624H163.121V48.2H162.305V40.808ZM165.084 40.808H169.5V32.6H170.316V41.624H165.084V40.808ZM165.084 39.176H167.868V32.6H168.684V39.992H165.084V39.176ZM172.688 32.6H179.888V48.2H172.688V32.6ZM179.883 32.6H187.083V48.2H179.883V32.6ZM187.078 32.6H194.278V48.2H187.078V32.6ZM194.273 32.6H201.473V48.2H194.273V32.6ZM201.469 32.6H208.669V48.2H201.469V32.6ZM208.664 32.6H215.864V48.2H208.664V32.6ZM215.859 32.6H223.059V48.2H215.859V32.6ZM222.647 39.176H227.879V48.2H227.063V39.992H222.647V39.176ZM222.647 40.808H226.247V48.2H225.431V41.624H222.647V40.808ZM230.25 32.6H237.45V48.2H230.25V32.6ZM237.445 32.6H244.645V48.2H237.445V32.6ZM247.017 32.6H247.833V48.2H247.017V32.6ZM248.649 32.6H249.465V48.2H248.649V32.6ZM251.836 32.6H259.036V48.2H251.836V32.6ZM259.031 32.6H266.231V48.2H259.031V32.6ZM268.603 39.176H273.835V39.992H269.419V48.2H268.603V39.176ZM270.235 40.808H273.835V41.624H271.051V48.2H270.235V40.808ZM273.422 32.6H280.622V48.2H273.422V32.6ZM280.617 32.6H287.817V48.2H280.617V32.6ZM287.812 32.6H295.013V48.2H287.812V32.6ZM295.008 32.6H302.208V48.2H295.008V32.6ZM304.579 39.176H309.811V39.992H305.395V48.2H304.579V39.176ZM306.211 40.808H309.811V41.624H307.027V48.2H306.211V40.808ZM309.398 32.6H316.598V48.2H309.398V32.6ZM316.594 32.6H323.794V48.2H316.594V32.6ZM326.165 32.6H326.981V48.2H326.165V32.6ZM327.797 32.6H328.613V48.2H327.797V32.6ZM330.984 32.6H338.184V48.2H330.984V32.6ZM338.18 32.6H345.38V48.2H338.18V32.6ZM345.375 32.6H352.575V48.2H345.375V32.6ZM352.57 32.6H359.77V48.2H352.57V32.6ZM359.766 32.6H366.966V48.2H359.766V32.6ZM366.961 32.6H374.161V48.2H366.961V32.6ZM376.532 39.176H381.764V39.992H377.348V48.2H376.532V39.176ZM378.164 40.808H381.764V41.624H378.98V48.2H378.164V40.808ZM380.944 40.808H385.36V32.6H386.176V41.624H380.944V40.808ZM380.944 39.176H383.728V32.6H384.544V39.992H380.944V39.176ZM388.547 32.6H395.747V48.2H388.547V32.6ZM395.742 32.6H402.942V48.2H395.742V32.6ZM402.938 32.6H410.138V48.2H402.938V32.6ZM410.133 32.6H417.333V48.2H410.133V32.6ZM417.328 32.6H424.528V48.2H417.328V32.6ZM424.523 32.6H431.723V48.2H424.523V32.6ZM431.719 32.6H438.919V48.2H431.719V32.6ZM441.29 32.6H442.106V48.2H441.29V32.6ZM442.922 32.6H443.738V48.2H442.922V32.6ZM446.109 32.6H453.309V48.2H446.109V32.6ZM453.305 32.6H460.505V48.2H453.305V32.6ZM462.876 39.176H468.108V39.992H463.692V48.2H462.876V39.176ZM464.508 40.808H468.108V41.624H465.324V48.2H464.508V40.808ZM467.695 32.6H474.895V48.2H467.695V32.6ZM474.891 32.6H482.091V48.2H474.891V32.6ZM481.678 39.176H486.91V48.2H486.094V39.992H481.678V39.176ZM481.678 40.808H485.278V48.2H484.462V41.624H481.678V40.808ZM496.477 32.6H503.677V48.2H496.477V32.6ZM503.672 32.6H510.872V48.2H503.672V32.6ZM513.243 32.6H514.059V48.2H513.243V32.6ZM514.875 32.6H515.691V48.2H514.875V32.6ZM0 48.6H7.2V64.2H0V48.6ZM7.19531 48.6H14.3953V64.2H7.19531V48.6ZM16.7666 55.176H21.9986V55.992H17.5826V64.2H16.7666V55.176ZM18.3986 56.808H21.9986V57.624H19.2146V64.2H18.3986V56.808ZM21.1779 55.176H29.1939V55.992H21.1779V55.176ZM21.1779 56.808H29.1939V57.624H21.1779V56.808ZM28.3732 55.176H36.3893V55.992H28.3732V55.176ZM28.3732 56.808H36.3893V57.624H28.3732V56.808ZM35.9766 48.6H43.1766V64.2H35.9766V48.6ZM43.1719 48.6H50.3719V64.2H43.1719V48.6ZM52.7432 48.6H53.5592V64.2H52.7432V48.6ZM54.3752 48.6H55.1912V64.2H54.3752V48.6ZM57.5625 48.6H64.7625V64.2H57.5625V48.6ZM64.7578 48.6H71.9578V64.2H64.7578V48.6ZM74.3291 55.176H79.5611V55.992H75.1451V64.2H74.3291V55.176ZM75.9611 56.808H79.5611V57.624H76.7771V64.2H75.9611V56.808ZM78.7404 55.176H86.7564V55.992H78.7404V55.176ZM78.7404 56.808H86.7564V57.624H78.7404V56.808ZM85.9357 55.176H93.9518V55.992H85.9357V55.176ZM85.9357 56.808H93.9518V57.624H85.9357V56.808ZM93.5391 48.6H100.739V64.2H93.5391V48.6ZM100.734 48.6H107.934V64.2H100.734V48.6ZM110.306 48.6H111.122V64.2H110.306V48.6ZM111.938 48.6H112.754V64.2H111.938V48.6ZM115.125 48.6H122.325V64.2H115.125V48.6ZM122.32 48.6H129.52V64.2H122.32V48.6ZM131.892 55.176H137.124V55.992H132.708V64.2H131.892V55.176ZM133.524 56.808H137.124V57.624H134.34V64.2H133.524V56.808ZM136.303 55.176H144.319V55.992H136.303V55.176ZM136.303 56.808H144.319V57.624H136.303V56.808ZM143.498 55.176H151.514V55.992H143.498V55.176ZM143.498 56.808H151.514V57.624H143.498V56.808ZM151.102 48.6H158.302V64.2H151.102V48.6ZM158.297 48.6H165.497V64.2H158.297V48.6ZM165.084 55.176H170.316V64.2H169.5V55.992H165.084V55.176ZM165.084 56.808H168.684V64.2H167.868V57.624H165.084V56.808ZM175.064 48.6H175.88V56.808H180.296V57.624H175.064V48.6ZM176.696 48.6H177.512V55.176H180.296V55.992H176.696V48.6ZM179.475 55.176H187.491V55.992H179.475V55.176ZM179.475 56.808H187.491V57.624H179.475V56.808ZM186.67 55.176H194.686V55.992H186.67V55.176ZM186.67 56.808H194.686V57.624H186.67V56.808ZM193.865 55.176H201.881V55.992H193.865V55.176ZM193.865 56.808H201.881V57.624H193.865V56.808ZM201.061 55.176H209.077V55.992H201.061V55.176ZM201.061 56.808H209.077V57.624H201.061V56.808ZM208.664 48.6H215.864V64.2H208.664V48.6ZM215.859 48.6H223.059V64.2H215.859V48.6ZM225.431 48.6H226.247V64.2H225.431V48.6ZM227.063 48.6H227.879V64.2H227.063V48.6ZM230.25 48.6H237.45V64.2H230.25V48.6ZM237.445 48.6H244.645V64.2H237.445V48.6ZM247.017 48.6H247.833V64.2H247.017V48.6ZM248.649 48.6H249.465V64.2H248.649V48.6ZM251.836 48.6H259.036V64.2H251.836V48.6ZM259.031 48.6H266.231V64.2H259.031V48.6ZM268.603 48.6H269.419V64.2H268.603V48.6ZM270.235 48.6H271.051V64.2H270.235V48.6ZM275.798 48.6H276.614V56.808H281.03V57.624H275.798V48.6ZM277.43 48.6H278.246V55.176H281.03V55.992H277.43V48.6ZM280.617 48.6H287.817V64.2H280.617V48.6ZM287.812 48.6H295.013V64.2H287.812V48.6ZM297.384 55.176H302.616V55.992H298.2V64.2H297.384V55.176ZM299.016 56.808H302.616V57.624H299.832V64.2H299.016V56.808ZM301.795 56.808H306.211V48.6H307.027V57.624H301.795V56.808ZM301.795 55.176H304.579V48.6H305.395V55.992H301.795V55.176ZM309.398 48.6H316.598V64.2H309.398V48.6ZM316.594 48.6H323.794V64.2H316.594V48.6ZM326.165 48.6H326.981V64.2H326.165V48.6ZM327.797 48.6H328.613V64.2H327.797V48.6ZM330.984 48.6H338.184V64.2H330.984V48.6ZM338.18 48.6H345.38V64.2H338.18V48.6ZM347.751 55.176H352.983V55.992H348.567V64.2H347.751V55.176ZM349.383 56.808H352.983V57.624H350.199V64.2H349.383V56.808ZM352.162 55.176H360.178V55.992H352.162V55.176ZM352.162 56.808H360.178V57.624H352.162V56.808ZM359.358 55.176H367.374V55.992H359.358V55.176ZM359.358 56.808H367.374V57.624H359.358V56.808ZM366.961 48.6H374.161V64.2H366.961V48.6ZM374.156 48.6H381.356V64.2H374.156V48.6ZM380.944 55.176H386.176V64.2H385.36V55.992H380.944V55.176ZM380.944 56.808H384.544V64.2H383.728V57.624H380.944V56.808ZM388.547 48.6H395.747V64.2H388.547V48.6ZM395.742 48.6H402.942V64.2H395.742V48.6ZM405.314 55.176H410.546V55.992H406.13V64.2H405.314V55.176ZM406.946 56.808H410.546V57.624H407.762V64.2H406.946V56.808ZM409.725 55.176H417.741V55.992H409.725V55.176ZM409.725 56.808H417.741V57.624H409.725V56.808ZM416.92 55.176H424.936V55.992H416.92V55.176ZM416.92 56.808H424.936V57.624H416.92V56.808ZM424.523 48.6H431.723V64.2H424.523V48.6ZM431.719 48.6H438.919V64.2H431.719V48.6ZM441.29 48.6H442.106V64.2H441.29V48.6ZM442.922 48.6H443.738V64.2H442.922V48.6ZM446.109 48.6H453.309V64.2H446.109V48.6ZM453.305 48.6H460.505V64.2H453.305V48.6ZM462.876 48.6H463.692V64.2H462.876V48.6ZM464.508 48.6H465.324V64.2H464.508V48.6ZM470.071 48.6H470.887V56.808H475.303V57.624H470.071V48.6ZM471.703 48.6H472.519V55.176H475.303V55.992H471.703V48.6ZM474.891 48.6H482.091V64.2H474.891V48.6ZM482.086 48.6H489.286V64.2H482.086V48.6ZM488.873 55.176H494.105V64.2H493.289V55.992H488.873V55.176ZM488.873 56.808H492.473V64.2H491.657V57.624H488.873V56.808ZM496.477 48.6H503.677V64.2H496.477V48.6ZM503.672 48.6H510.872V64.2H503.672V48.6ZM513.243 48.6H514.059V64.2H513.243V48.6ZM514.875 48.6H515.691V64.2H514.875V48.6ZM0 64.6H7.2V80.2H0V64.6ZM7.19531 64.6H14.3953V80.2H7.19531V64.6ZM16.7666 64.6H17.5826V80.2H16.7666V64.6ZM18.3986 64.6H19.2146V80.2H18.3986V64.6ZM35.9766 64.6H43.1766V80.2H35.9766V64.6ZM43.1719 64.6H50.3719V80.2H43.1719V64.6ZM52.7432 64.6H53.5592V80.2H52.7432V64.6ZM54.3752 64.6H55.1912V80.2H54.3752V64.6ZM57.5625 64.6H64.7625V80.2H57.5625V64.6ZM64.7578 64.6H71.9578V80.2H64.7578V64.6ZM74.3291 64.6H75.1451V80.2H74.3291V64.6ZM75.9611 64.6H76.7771V80.2H75.9611V64.6ZM93.5391 64.6H100.739V80.2H93.5391V64.6ZM100.734 64.6H107.934V80.2H100.734V64.6ZM110.306 64.6H111.122V80.2H110.306V64.6ZM111.938 64.6H112.754V80.2H111.938V64.6ZM115.125 64.6H122.325V80.2H115.125V64.6ZM122.32 64.6H129.52V80.2H122.32V64.6ZM131.892 64.6H132.708V80.2H131.892V64.6ZM133.524 64.6H134.34V80.2H133.524V64.6ZM151.102 64.6H158.302V80.2H151.102V64.6ZM158.297 64.6H165.497V80.2H158.297V64.6ZM167.868 64.6H168.684V80.2H167.868V64.6ZM169.5 64.6H170.316V80.2H169.5V64.6ZM172.688 64.6H179.888V80.2H172.688V64.6ZM179.883 64.6H187.083V80.2H179.883V64.6ZM187.078 64.6H194.278V80.2H187.078V64.6ZM194.273 64.6H201.473V80.2H194.273V64.6ZM201.469 64.6H208.669V80.2H201.469V64.6ZM208.664 64.6H215.864V80.2H208.664V64.6ZM215.859 64.6H223.059V80.2H215.859V64.6ZM225.431 64.6H226.247V80.2H225.431V64.6ZM227.063 64.6H227.879V80.2H227.063V64.6ZM230.25 64.6H237.45V80.2H230.25V64.6ZM237.445 64.6H244.645V80.2H237.445V64.6ZM247.017 64.6H247.833V80.2H247.017V64.6ZM248.649 64.6H249.465V80.2H248.649V64.6ZM251.836 64.6H259.036V80.2H251.836V64.6ZM259.031 64.6H266.231V80.2H259.031V64.6ZM268.603 64.6H269.419V80.2H268.603V64.6ZM270.235 64.6H271.051V80.2H270.235V64.6ZM282.993 64.6H283.809V72.808H288.225V73.624H282.993V64.6ZM284.625 64.6H285.441V71.176H288.225V71.992H284.625V64.6ZM287.404 71.176H295.421V71.992H287.404V71.176ZM287.404 72.808H295.421V73.624H287.404V72.808ZM294.6 72.808H299.016V64.6H299.832V73.624H294.6V72.808ZM294.6 71.176H297.384V64.6H298.2V71.992H294.6V71.176ZM309.398 64.6H316.598V80.2H309.398V64.6ZM316.594 64.6H323.794V80.2H316.594V64.6ZM326.165 64.6H326.981V80.2H326.165V64.6ZM327.797 64.6H328.613V80.2H327.797V64.6ZM330.984 64.6H338.184V80.2H330.984V64.6ZM338.18 64.6H345.38V80.2H338.18V64.6ZM347.751 64.6H348.567V80.2H347.751V64.6ZM349.383 64.6H350.199V80.2H349.383V64.6ZM366.961 64.6H374.161V80.2H366.961V64.6ZM374.156 64.6H381.356V80.2H374.156V64.6ZM383.728 64.6H384.544V80.2H383.728V64.6ZM385.36 64.6H386.176V80.2H385.36V64.6ZM388.547 64.6H395.747V80.2H388.547V64.6ZM395.742 64.6H402.942V80.2H395.742V64.6ZM405.314 64.6H406.13V80.2H405.314V64.6ZM406.946 64.6H407.762V80.2H406.946V64.6ZM424.523 64.6H431.723V80.2H424.523V64.6ZM431.719 64.6H438.919V80.2H431.719V64.6ZM441.29 64.6H442.106V80.2H441.29V64.6ZM442.922 64.6H443.738V80.2H442.922V64.6ZM446.109 64.6H453.309V80.2H446.109V64.6ZM453.305 64.6H460.505V80.2H453.305V64.6ZM462.876 64.6H463.692V80.2H462.876V64.6ZM464.508 64.6H465.324V80.2H464.508V64.6ZM477.267 64.6H478.083V72.808H482.499V73.624H477.267V64.6ZM478.899 64.6H479.715V71.176H482.499V71.992H478.899V64.6ZM482.086 64.6H489.286V80.2H482.086V64.6ZM489.281 64.6H496.481V80.2H489.281V64.6ZM496.477 64.6H503.677V80.2H496.477V64.6ZM503.672 64.6H510.872V80.2H503.672V64.6ZM513.243 64.6H514.059V80.2H513.243V64.6ZM514.875 64.6H515.691V80.2H514.875V64.6ZM2.376 80.6H3.192V88.808H7.608V89.624H2.376V80.6ZM4.008 80.6H4.824V87.176H7.608V87.992H4.008V80.6ZM6.78731 87.176H14.8033V87.992H6.78731V87.176ZM6.78731 88.808H14.8033V89.624H6.78731V88.808ZM13.9826 88.808H18.3986V80.6H19.2146V89.624H13.9826V88.808ZM13.9826 87.176H16.7666V80.6H17.5826V87.992H13.9826V87.176ZM38.3526 80.6H39.1686V88.808H43.5846V89.624H38.3526V80.6ZM39.9846 80.6H40.8006V87.176H43.5846V87.992H39.9846V80.6ZM42.7639 87.176H50.7799V87.992H42.7639V87.176ZM42.7639 88.808H50.7799V89.624H42.7639V88.808ZM49.9592 88.808H54.3752V80.6H55.1912V89.624H49.9592V88.808ZM49.9592 87.176H52.7432V80.6H53.5592V87.992H49.9592V87.176ZM59.9385 80.6H60.7545V88.808H65.1705V89.624H59.9385V80.6ZM61.5705 80.6H62.3865V87.176H65.1705V87.992H61.5705V80.6ZM64.3498 87.176H72.3658V87.992H64.3498V87.176ZM64.3498 88.808H72.3658V89.624H64.3498V88.808ZM71.5451 88.808H75.9611V80.6H76.7771V89.624H71.5451V88.808ZM71.5451 87.176H74.3291V80.6H75.1451V87.992H71.5451V87.176ZM95.9151 80.6H96.7311V88.808H101.147V89.624H95.9151V80.6ZM97.5471 80.6H98.3631V87.176H101.147V87.992H97.5471V80.6ZM100.326 87.176H108.342V87.992H100.326V87.176ZM100.326 88.808H108.342V89.624H100.326V88.808ZM107.522 88.808H111.938V80.6H112.754V89.624H107.522V88.808ZM107.522 87.176H110.306V80.6H111.122V87.992H107.522V87.176ZM117.501 80.6H118.317V88.808H122.733V89.624H117.501V80.6ZM119.133 80.6H119.949V87.176H122.733V87.992H119.133V80.6ZM121.912 87.176H129.928V87.992H121.912V87.176ZM121.912 88.808H129.928V89.624H121.912V88.808ZM129.108 88.808H133.524V80.6H134.34V89.624H129.108V88.808ZM129.108 87.176H131.892V80.6H132.708V87.992H129.108V87.176ZM153.478 80.6H154.294V88.808H158.71V89.624H153.478V80.6ZM155.11 80.6H155.926V87.176H158.71V87.992H155.11V80.6ZM157.889 87.176H165.905V87.992H157.889V87.176ZM157.889 88.808H165.905V89.624H157.889V88.808ZM165.084 88.808H169.5V80.6H170.316V89.624H165.084V88.808ZM165.084 87.176H167.868V80.6H168.684V87.992H165.084V87.176ZM175.064 80.6H175.88V88.808H180.296V89.624H175.064V80.6ZM176.696 80.6H177.512V87.176H180.296V87.992H176.696V80.6ZM179.475 87.176H187.491V87.992H179.475V87.176ZM179.475 88.808H187.491V89.624H179.475V88.808ZM186.67 87.176H194.686V87.992H186.67V87.176ZM186.67 88.808H194.686V89.624H186.67V88.808ZM193.865 87.176H201.881V87.992H193.865V87.176ZM193.865 88.808H201.881V89.624H193.865V88.808ZM201.061 87.176H209.077V87.992H201.061V87.176ZM201.061 88.808H209.077V89.624H201.061V88.808ZM208.256 87.176H216.272V87.992H208.256V87.176ZM208.256 88.808H216.272V89.624H208.256V88.808ZM215.451 87.176H223.467V87.992H215.451V87.176ZM215.451 88.808H223.467V89.624H215.451V88.808ZM222.647 88.808H227.063V80.6H227.879V89.624H222.647V88.808ZM222.647 87.176H225.431V80.6H226.247V87.992H222.647V87.176ZM232.626 80.6H233.442V88.808H237.858V89.624H232.626V80.6ZM234.258 80.6H235.074V87.176H237.858V87.992H234.258V80.6ZM237.037 87.176H245.053V87.992H237.037V87.176ZM237.037 88.808H245.053V89.624H237.037V88.808ZM244.233 88.808H248.649V80.6H249.465V89.624H244.233V88.808ZM244.233 87.176H247.017V80.6H247.833V87.992H244.233V87.176ZM254.212 80.6H255.028V88.808H259.444V89.624H254.212V80.6ZM255.844 80.6H256.66V87.176H259.444V87.992H255.844V80.6ZM258.623 87.176H266.639V87.992H258.623V87.176ZM258.623 88.808H266.639V89.624H258.623V88.808ZM265.819 88.808H270.235V80.6H271.051V89.624H265.819V88.808ZM265.819 87.176H268.603V80.6H269.419V87.992H265.819V87.176ZM311.774 80.6H312.59V88.808H317.006V89.624H311.774V80.6ZM313.406 80.6H314.222V87.176H317.006V87.992H313.406V80.6ZM316.186 87.176H324.202V87.992H316.186V87.176ZM316.186 88.808H324.202V89.624H316.186V88.808ZM323.381 88.808H327.797V80.6H328.613V89.624H323.381V88.808ZM323.381 87.176H326.165V80.6H326.981V87.992H323.381V87.176ZM333.36 80.6H334.176V88.808H338.592V89.624H333.36V80.6ZM334.992 80.6H335.808V87.176H338.592V87.992H334.992V80.6ZM337.772 87.176H345.788V87.992H337.772V87.176ZM337.772 88.808H345.788V89.624H337.772V88.808ZM344.967 88.808H349.383V80.6H350.199V89.624H344.967V88.808ZM344.967 87.176H347.751V80.6H348.567V87.992H344.967V87.176ZM369.337 80.6H370.153V88.808H374.569V89.624H369.337V80.6ZM370.969 80.6H371.785V87.176H374.569V87.992H370.969V80.6ZM373.748 87.176H381.764V87.992H373.748V87.176ZM373.748 88.808H381.764V89.624H373.748V88.808ZM380.944 88.808H385.36V80.6H386.176V89.624H380.944V88.808ZM380.944 87.176H383.728V80.6H384.544V87.992H380.944V87.176ZM390.923 80.6H391.739V88.808H396.155V89.624H390.923V80.6ZM392.555 80.6H393.371V87.176H396.155V87.992H392.555V80.6ZM395.334 87.176H403.35V87.992H395.334V87.176ZM395.334 88.808H403.35V89.624H395.334V88.808ZM402.529 88.808H406.946V80.6H407.762V89.624H402.529V88.808ZM402.529 87.176H405.314V80.6H406.13V87.992H402.529V87.176ZM426.899 80.6H427.715V88.808H432.131V89.624H426.899V80.6ZM428.531 80.6H429.347V87.176H432.131V87.992H428.531V80.6ZM431.311 87.176H439.327V87.992H431.311V87.176ZM431.311 88.808H439.327V89.624H431.311V88.808ZM438.506 88.808H442.922V80.6H443.738V89.624H438.506V88.808ZM438.506 87.176H441.29V80.6H442.106V87.992H438.506V87.176ZM448.485 80.6H449.301V88.808H453.717V89.624H448.485V80.6ZM450.117 80.6H450.933V87.176H453.717V87.992H450.117V80.6ZM452.897 87.176H460.913V87.992H452.897V87.176ZM452.897 88.808H460.913V89.624H452.897V88.808ZM460.092 88.808H464.508V80.6H465.324V89.624H460.092V88.808ZM460.092 87.176H462.876V80.6H463.692V87.992H460.092V87.176ZM484.462 80.6H485.278V88.808H489.694V89.624H484.462V80.6ZM486.094 80.6H486.91V87.176H489.694V87.992H486.094V80.6ZM488.873 87.176H496.889V87.992H488.873V87.176ZM488.873 88.808H496.889V89.624H488.873V88.808ZM496.069 87.176H504.085V87.992H496.069V87.176ZM496.069 88.808H504.085V89.624H496.069V88.808ZM503.264 87.176H511.28V87.992H503.264V87.176ZM503.264 88.808H511.28V89.624H503.264V88.808ZM510.459 88.808H514.875V80.6H515.691V89.624H510.459V88.808ZM510.459 87.176H513.243V80.6H514.059V87.992H510.459V87.176Z" fill="white"/>
</svg>
