<svg width="432" height="76" viewBox="0 0 432 76" fill="none" xmlns="http://www.w3.org/2000/svg">
<path d="M0 16.8V0H6V16.8H0ZM6 16.8V0H12V16.8H6ZM12.84 16.8V10.56H11.04V9.12H14.28V16.8H12.84ZM15.72 16.8V7.68H11.04V6.24H17.16V16.8H15.72ZM30 16.8V0H36V16.8H30ZM36 16.8V0H42V16.8H36ZM42.84 16.8V10.56H41.04V9.12H44.28V16.8H42.84ZM45.72 16.8V7.68H41.04V6.24H47.16V16.8H45.72ZM54 16.8V0H60V16.8H54ZM60 16.8V0H66V16.8H60ZM66 16.8V0H72V16.8H66ZM72 16.8V0H78V16.8H72ZM78 16.8V0H84V16.8H78ZM84.84 16.8V10.56H83.04V9.12H86.28V16.8H84.84ZM87.72 16.8V7.68H83.04V6.24H89.16V16.8H87.72ZM96 16.8V0H102V16.8H96ZM102 16.8V0H108V16.8H102ZM108 16.8V0H114V16.8H108ZM114 16.8V0H120V16.8H114ZM120 16.8V0H126V16.8H120ZM126 16.8V0H132V16.8H126ZM132.84 16.8V10.56H131.04V9.12H134.28V16.8H132.84ZM135.72 16.8V7.68H131.04V6.24H137.16V16.8H135.72ZM144 16.8V0H150V16.8H144ZM150 16.8V0H156V16.8H150ZM156 16.8V0H162V16.8H156ZM162 16.8V0H168V16.8H162ZM168 16.8V0H174V16.8H168ZM174 16.8V0H180V16.8H174ZM180 16.8V0H186V16.8H180ZM186.84 16.8V10.56H185.04V9.12H188.28V16.8H186.84ZM189.72 16.8V7.68H185.04V6.24H191.16V16.8H189.72ZM192 16.8V0H198V16.8H192ZM198 16.8V0H204V16.8H198ZM204.84 16.8V10.56H203.04V9.12H206.28V16.8H204.84ZM207.72 16.8V7.68H203.04V6.24H209.16V16.8H207.72ZM210 16.8V0H216V16.8H210ZM216 16.8V0H222V16.8H216ZM222 16.8V0H228V16.8H222ZM228.84 16.8V10.56H227.04V9.12H230.28V16.8H228.84ZM231.72 16.8V7.68H227.04V6.24H233.16V16.8H231.72ZM252 16.8V0H258V16.8H252ZM258 16.8V0H264V16.8H258ZM264 16.8V0H270V16.8H264ZM270.84 16.8V10.56H269.04V9.12H272.28V16.8H270.84ZM273.72 16.8V7.68H269.04V6.24H275.16V16.8H273.72ZM276 16.8V0H282V16.8H276ZM282 16.8V0H288V16.8H282ZM288 16.8V0H294V16.8H288ZM294 16.8V0H300V16.8H294ZM300 16.8V0H306V16.8H300ZM306 16.8V0H312V16.8H306ZM312.84 16.8V10.56H311.04V9.12H314.28V16.8H312.84ZM315.72 16.8V7.68H311.04V6.24H317.16V16.8H315.72ZM330 16.8V0H336V16.8H330ZM336 16.8V0H342V16.8H336ZM342 16.8V0H348V16.8H342ZM348 16.8V0H354V16.8H348ZM354 16.8V0H360V16.8H354ZM360.84 16.8V10.56H359.04V9.12H362.28V16.8H360.84ZM363.72 16.8V7.68H359.04V6.24H365.16V16.8H363.72ZM372 16.8V0H378V16.8H372ZM378 16.8V0H384V16.8H378ZM384 16.8V0H390V16.8H384ZM390.84 16.8V10.56H389.04V9.12H392.28V16.8H390.84ZM393.72 16.8V7.68H389.04V6.24H395.16V16.8H393.72ZM414 16.8V0H420V16.8H414ZM420 16.8V0H426V16.8H420ZM426.84 16.8V10.56H425.04V9.12H428.28V16.8H426.84ZM429.72 16.8V7.68H425.04V6.24H431.16V16.8H429.72ZM0 29.8V13H6V29.8H0ZM6 29.8V13H12V29.8H6ZM12.84 29.8V13H14.28V29.8H12.84ZM15.72 29.8V13H17.16V29.8H15.72ZM30 29.8V13H36V29.8H30ZM36 29.8V13H42V29.8H36ZM42.84 29.8V13H44.28V29.8H42.84ZM45.72 29.8V13H47.16V29.8H45.72ZM48 29.8V13H54V29.8H48ZM54 29.8V13H60V29.8H54ZM60.84 29.8V19.24H66.96V20.68H62.28V29.8H60.84ZM63.72 29.8V22.12H66.96V23.56H65.16V29.8H63.72ZM65.04 23.56V22.12H72.96V23.56H65.04ZM65.04 20.68V19.24H72.96V20.68H65.04ZM71.04 23.56V22.12H78.96V23.56H71.04ZM71.04 20.68V19.24H78.96V20.68H71.04ZM78 29.8V13H84V29.8H78ZM84 29.8V13H90V29.8H84ZM90.84 29.8V23.56H89.04V22.12H92.28V29.8H90.84ZM93.72 29.8V20.68H89.04V19.24H95.16V29.8H93.72ZM96 29.8V13H102V29.8H96ZM102 29.8V13H108V29.8H102ZM108.84 29.8V19.24H114.96V20.68H110.28V29.8H108.84ZM111.72 29.8V22.12H114.96V23.56H113.16V29.8H111.72ZM113.04 23.56V22.12H120.96V23.56H113.04ZM113.04 20.68V19.24H120.96V20.68H113.04ZM119.04 23.56V22.12H126.96V23.56H119.04ZM119.04 20.68V19.24H126.96V20.68H119.04ZM126 29.8V13H132V29.8H126ZM132 29.8V13H138V29.8H132ZM138.84 29.8V23.56H137.04V22.12H140.28V29.8H138.84ZM141.72 29.8V20.68H137.04V19.24H143.16V29.8H141.72ZM144 29.8V13H150V29.8H144ZM150 29.8V13H156V29.8H150ZM156.84 29.8V19.24H162.96V20.68H158.28V29.8H156.84ZM159.72 29.8V22.12H162.96V23.56H161.16V29.8H159.72ZM161.04 23.56V22.12H168.96V23.56H161.04ZM161.04 20.68V19.24H168.96V20.68H161.04ZM167.04 23.56V22.12H174.96V23.56H167.04ZM167.04 20.68V19.24H174.96V20.68H167.04ZM173.04 23.56V22.12H180.96V23.56H173.04ZM173.04 20.68V19.24H180.96V20.68H173.04ZM179.04 23.56V22.12H186.96V23.56H179.04ZM179.04 20.68V19.24H186.96V20.68H179.04ZM185.04 23.56V22.12H189.72V13H191.16V23.56H185.04ZM185.04 20.68V19.24H186.84V13H188.28V20.68H185.04ZM192 29.8V13H198V29.8H192ZM198 29.8V13H204V29.8H198ZM204.84 29.8V13H206.28V29.8H204.84ZM207.72 29.8V13H209.16V29.8H207.72ZM210 29.8V13H216V29.8H210ZM216 29.8V13H222V29.8H216ZM222 29.8V13H228V29.8H222ZM228 29.8V13H234V29.8H228ZM234.84 29.8V23.56H233.04V22.12H236.28V29.8H234.84ZM237.72 29.8V20.68H233.04V19.24H239.16V29.8H237.72ZM246 29.8V13H252V29.8H246ZM252 29.8V13H258V29.8H252ZM258 29.8V13H264V29.8H258ZM264 29.8V13H270V29.8H264ZM270.84 29.8V13H272.28V29.8H270.84ZM273.72 29.8V13H275.16V29.8H273.72ZM276 29.8V13H282V29.8H276ZM282 29.8V13H288V29.8H282ZM288.84 29.8V19.24H294.96V20.68H290.28V29.8H288.84ZM291.72 29.8V22.12H294.96V23.56H293.16V29.8H291.72ZM293.04 23.56V22.12H300.96V23.56H293.04ZM293.04 20.68V19.24H300.96V20.68H293.04ZM299.04 23.56V22.12H306.96V23.56H299.04ZM299.04 20.68V19.24H306.96V20.68H299.04ZM306 29.8V13H312V29.8H306ZM312 29.8V13H318V29.8H312ZM318.84 29.8V23.56H317.04V22.12H320.28V29.8H318.84ZM321.72 29.8V20.68H317.04V19.24H323.16V29.8H321.72ZM324 29.8V13H330V29.8H324ZM330 29.8V13H336V29.8H330ZM336.84 29.8V19.24H342.96V20.68H338.28V29.8H336.84ZM339.72 29.8V22.12H342.96V23.56H341.16V29.8H339.72ZM341.04 23.56V22.12H348.96V23.56H341.04ZM341.04 20.68V19.24H348.96V20.68H341.04ZM347.04 23.56V22.12H354.96V23.56H347.04ZM347.04 20.68V19.24H354.96V20.68H347.04ZM354 29.8V13H360V29.8H354ZM360 29.8V13H366V29.8H360ZM366.84 29.8V23.56H365.04V22.12H368.28V29.8H366.84ZM369.72 29.8V20.68H365.04V19.24H371.16V29.8H369.72ZM372 29.8V13H378V29.8H372ZM378 29.8V13H384V29.8H378ZM384 29.8V13H390V29.8H384ZM390 29.8V13H396V29.8H390ZM396.84 29.8V23.56H395.04V22.12H398.28V29.8H396.84ZM399.72 29.8V20.68H395.04V19.24H401.16V29.8H399.72ZM414 29.8V13H420V29.8H414ZM420 29.8V13H426V29.8H420ZM426.84 29.8V13H428.28V29.8H426.84ZM429.72 29.8V13H431.16V29.8H429.72ZM0 42.8V26H6V42.8H0ZM6 42.8V26H12V42.8H6ZM12 42.8V26H18V42.8H12ZM18 42.8V26H24V42.8H18ZM24 42.8V26H30V42.8H24ZM30 42.8V26H36V42.8H30ZM36 42.8V26H42V42.8H36ZM42.84 42.8V26H44.28V42.8H42.84ZM45.72 42.8V26H47.16V42.8H45.72ZM48 42.8V26H54V42.8H48ZM54 42.8V26H60V42.8H54ZM60 42.8V26H66V42.8H60ZM66 42.8V26H72V42.8H66ZM72 42.8V26H78V42.8H72ZM78 42.8V26H84V42.8H78ZM84 42.8V26H90V42.8H84ZM90.84 42.8V26H92.28V42.8H90.84ZM93.72 42.8V26H95.16V42.8H93.72ZM96 42.8V26H102V42.8H96ZM102 42.8V26H108V42.8H102ZM108 42.8V26H114V42.8H108ZM114 42.8V26H120V42.8H114ZM120 42.8V26H126V42.8H120ZM126 42.8V26H132V42.8H126ZM132.84 42.8V32.24H138.96V33.68H134.28V42.8H132.84ZM135.72 42.8V35.12H138.96V36.56H137.16V42.8H135.72ZM137.04 36.56V35.12H141.72V26H143.16V36.56H137.04ZM137.04 33.68V32.24H138.84V26H140.28V33.68H137.04ZM144 42.8V26H150V42.8H144ZM150 42.8V26H156V42.8H150ZM156 42.8V26H162V42.8H156ZM162 42.8V26H168V42.8H162ZM168 42.8V26H174V42.8H168ZM174 42.8V26H180V42.8H174ZM180 42.8V26H186V42.8H180ZM186.84 42.8V36.56H185.04V35.12H188.28V42.8H186.84ZM189.72 42.8V33.68H185.04V32.24H191.16V42.8H189.72ZM192 42.8V26H198V42.8H192ZM198 42.8V26H204V42.8H198ZM204.84 42.8V26H206.28V42.8H204.84ZM207.72 42.8V26H209.16V42.8H207.72ZM210 42.8V26H216V42.8H210ZM216 42.8V26H222V42.8H216ZM222.84 42.8V32.24H228.96V33.68H224.28V42.8H222.84ZM225.72 42.8V35.12H228.96V36.56H227.16V42.8H225.72ZM228 42.8V26H234V42.8H228ZM234 42.8V26H240V42.8H234ZM240 42.8V26H246V42.8H240ZM246 42.8V26H252V42.8H246ZM252.84 42.8V32.24H258.96V33.68H254.28V42.8H252.84ZM255.72 42.8V35.12H258.96V36.56H257.16V42.8H255.72ZM258 42.8V26H264V42.8H258ZM264 42.8V26H270V42.8H264ZM270.84 42.8V26H272.28V42.8H270.84ZM273.72 42.8V26H275.16V42.8H273.72ZM276 42.8V26H282V42.8H276ZM282 42.8V26H288V42.8H282ZM288 42.8V26H294V42.8H288ZM294 42.8V26H300V42.8H294ZM300 42.8V26H306V42.8H300ZM306 42.8V26H312V42.8H306ZM312.84 42.8V32.24H318.96V33.68H314.28V42.8H312.84ZM315.72 42.8V35.12H318.96V36.56H317.16V42.8H315.72ZM317.04 36.56V35.12H321.72V26H323.16V36.56H317.04ZM317.04 33.68V32.24H318.84V26H320.28V33.68H317.04ZM324 42.8V26H330V42.8H324ZM330 42.8V26H336V42.8H330ZM336 42.8V26H342V42.8H336ZM342 42.8V26H348V42.8H342ZM348 42.8V26H354V42.8H348ZM354 42.8V26H360V42.8H354ZM360 42.8V26H366V42.8H360ZM366.84 42.8V26H368.28V42.8H366.84ZM369.72 42.8V26H371.16V42.8H369.72ZM372 42.8V26H378V42.8H372ZM378 42.8V26H384V42.8H378ZM384.84 42.8V32.24H390.96V33.68H386.28V42.8H384.84ZM387.72 42.8V35.12H390.96V36.56H389.16V42.8H387.72ZM390 42.8V26H396V42.8H390ZM396 42.8V26H402V42.8H396ZM402.84 42.8V36.56H401.04V35.12H404.28V42.8H402.84ZM405.72 42.8V33.68H401.04V32.24H407.16V42.8H405.72ZM414 42.8V26H420V42.8H414ZM420 42.8V26H426V42.8H420ZM426.84 42.8V26H428.28V42.8H426.84ZM429.72 42.8V26H431.16V42.8H429.72ZM0 55.8V39H6V55.8H0ZM6 55.8V39H12V55.8H6ZM12.84 55.8V45.24H18.96V46.68H14.28V55.8H12.84ZM15.72 55.8V48.12H18.96V49.56H17.16V55.8H15.72ZM17.04 49.56V48.12H24.96V49.56H17.04ZM17.04 46.68V45.24H24.96V46.68H17.04ZM23.04 49.56V48.12H30.96V49.56H23.04ZM23.04 46.68V45.24H30.96V46.68H23.04ZM30 55.8V39H36V55.8H30ZM36 55.8V39H42V55.8H36ZM42.84 55.8V39H44.28V55.8H42.84ZM45.72 55.8V39H47.16V55.8H45.72ZM48 55.8V39H54V55.8H48ZM54 55.8V39H60V55.8H54ZM60.84 55.8V45.24H66.96V46.68H62.28V55.8H60.84ZM63.72 55.8V48.12H66.96V49.56H65.16V55.8H63.72ZM65.04 49.56V48.12H72.96V49.56H65.04ZM65.04 46.68V45.24H72.96V46.68H65.04ZM71.04 49.56V48.12H78.96V49.56H71.04ZM71.04 46.68V45.24H78.96V46.68H71.04ZM78 55.8V39H84V55.8H78ZM84 55.8V39H90V55.8H84ZM90.84 55.8V39H92.28V55.8H90.84ZM93.72 55.8V39H95.16V55.8H93.72ZM96 55.8V39H102V55.8H96ZM102 55.8V39H108V55.8H102ZM108.84 55.8V45.24H114.96V46.68H110.28V55.8H108.84ZM111.72 55.8V48.12H114.96V49.56H113.16V55.8H111.72ZM113.04 49.56V48.12H120.96V49.56H113.04ZM113.04 46.68V45.24H120.96V46.68H113.04ZM119.04 49.56V48.12H126.96V49.56H119.04ZM119.04 46.68V45.24H126.96V46.68H119.04ZM126 55.8V39H132V55.8H126ZM132 55.8V39H138V55.8H132ZM138.84 55.8V49.56H137.04V48.12H140.28V55.8H138.84ZM141.72 55.8V46.68H137.04V45.24H143.16V55.8H141.72ZM144.84 49.56V39H146.28V48.12H150.96V49.56H144.84ZM147.72 46.68V39H149.16V45.24H150.96V46.68H147.72ZM149.04 49.56V48.12H156.96V49.56H149.04ZM149.04 46.68V45.24H156.96V46.68H149.04ZM155.04 49.56V48.12H162.96V49.56H155.04ZM155.04 46.68V45.24H162.96V46.68H155.04ZM161.04 49.56V48.12H168.96V49.56H161.04ZM161.04 46.68V45.24H168.96V46.68H161.04ZM167.04 49.56V48.12H174.96V49.56H167.04ZM167.04 46.68V45.24H174.96V46.68H167.04ZM174 55.8V39H180V55.8H174ZM180 55.8V39H186V55.8H180ZM186.84 55.8V39H188.28V55.8H186.84ZM189.72 55.8V39H191.16V55.8H189.72ZM192 55.8V39H198V55.8H192ZM198 55.8V39H204V55.8H198ZM204.84 55.8V39H206.28V55.8H204.84ZM207.72 55.8V39H209.16V55.8H207.72ZM210 55.8V39H216V55.8H210ZM216 55.8V39H222V55.8H216ZM222.84 55.8V39H224.28V55.8H222.84ZM225.72 55.8V39H227.16V55.8H225.72ZM228.84 49.56V39H230.28V48.12H234.96V49.56H228.84ZM231.72 46.68V39H233.16V45.24H234.96V46.68H231.72ZM234 55.8V39H240V55.8H234ZM240 55.8V39H246V55.8H240ZM246.84 55.8V45.24H252.96V46.68H248.28V55.8H246.84ZM249.72 55.8V48.12H252.96V49.56H251.16V55.8H249.72ZM251.04 49.56V48.12H255.72V39H257.16V49.56H251.04ZM251.04 46.68V45.24H252.84V39H254.28V46.68H251.04ZM258 55.8V39H264V55.8H258ZM264 55.8V39H270V55.8H264ZM270.84 55.8V39H272.28V55.8H270.84ZM273.72 55.8V39H275.16V55.8H273.72ZM276 55.8V39H282V55.8H276ZM282 55.8V39H288V55.8H282ZM288.84 55.8V45.24H294.96V46.68H290.28V55.8H288.84ZM291.72 55.8V48.12H294.96V49.56H293.16V55.8H291.72ZM293.04 49.56V48.12H300.96V49.56H293.04ZM293.04 46.68V45.24H300.96V46.68H293.04ZM299.04 49.56V48.12H306.96V49.56H299.04ZM299.04 46.68V45.24H306.96V46.68H299.04ZM306 55.8V39H312V55.8H306ZM312 55.8V39H318V55.8H312ZM318.84 55.8V49.56H317.04V48.12H320.28V55.8H318.84ZM321.72 55.8V46.68H317.04V45.24H323.16V55.8H321.72ZM324 55.8V39H330V55.8H324ZM330 55.8V39H336V55.8H330ZM336.84 55.8V45.24H342.96V46.68H338.28V55.8H336.84ZM339.72 55.8V48.12H342.96V49.56H341.16V55.8H339.72ZM341.04 49.56V48.12H348.96V49.56H341.04ZM341.04 46.68V45.24H348.96V46.68H341.04ZM347.04 49.56V48.12H354.96V49.56H347.04ZM347.04 46.68V45.24H354.96V46.68H347.04ZM354 55.8V39H360V55.8H354ZM360 55.8V39H366V55.8H360ZM366.84 55.8V39H368.28V55.8H366.84ZM369.72 55.8V39H371.16V55.8H369.72ZM372 55.8V39H378V55.8H372ZM378 55.8V39H384V55.8H378ZM384.84 55.8V39H386.28V55.8H384.84ZM387.72 55.8V39H389.16V55.8H387.72ZM390.84 49.56V39H392.28V48.12H396.96V49.56H390.84ZM393.72 46.68V39H395.16V45.24H396.96V46.68H393.72ZM396 55.8V39H402V55.8H396ZM402 55.8V39H408V55.8H402ZM408.84 55.8V49.56H407.04V48.12H410.28V55.8H408.84ZM411.72 55.8V46.68H407.04V45.24H413.16V55.8H411.72ZM414 55.8V39H420V55.8H414ZM420 55.8V39H426V55.8H420ZM426.84 55.8V39H428.28V55.8H426.84ZM429.72 55.8V39H431.16V55.8H429.72ZM0 68.8V52H6V68.8H0ZM6 68.8V52H12V68.8H6ZM12.84 68.8V52H14.28V68.8H12.84ZM15.72 68.8V52H17.16V68.8H15.72ZM30 68.8V52H36V68.8H30ZM36 68.8V52H42V68.8H36ZM42.84 68.8V52H44.28V68.8H42.84ZM45.72 68.8V52H47.16V68.8H45.72ZM48 68.8V52H54V68.8H48ZM54 68.8V52H60V68.8H54ZM60.84 68.8V52H62.28V68.8H60.84ZM63.72 68.8V52H65.16V68.8H63.72ZM78 68.8V52H84V68.8H78ZM84 68.8V52H90V68.8H84ZM90.84 68.8V52H92.28V68.8H90.84ZM93.72 68.8V52H95.16V68.8H93.72ZM96 68.8V52H102V68.8H96ZM102 68.8V52H108V68.8H102ZM108.84 68.8V52H110.28V68.8H108.84ZM111.72 68.8V52H113.16V68.8H111.72ZM126 68.8V52H132V68.8H126ZM132 68.8V52H138V68.8H132ZM138.84 68.8V52H140.28V68.8H138.84ZM141.72 68.8V52H143.16V68.8H141.72ZM144 68.8V52H150V68.8H144ZM150 68.8V52H156V68.8H150ZM156 68.8V52H162V68.8H156ZM162 68.8V52H168V68.8H162ZM168 68.8V52H174V68.8H168ZM174 68.8V52H180V68.8H174ZM180 68.8V52H186V68.8H180ZM186.84 68.8V52H188.28V68.8H186.84ZM189.72 68.8V52H191.16V68.8H189.72ZM192 68.8V52H198V68.8H192ZM198 68.8V52H204V68.8H198ZM204.84 68.8V52H206.28V68.8H204.84ZM207.72 68.8V52H209.16V68.8H207.72ZM210 68.8V52H216V68.8H210ZM216 68.8V52H222V68.8H216ZM222.84 68.8V52H224.28V68.8H222.84ZM225.72 68.8V52H227.16V68.8H225.72ZM234.84 62.56V52H236.28V61.12H240.96V62.56H234.84ZM237.72 59.68V52H239.16V58.24H240.96V59.68H237.72ZM239.04 62.56V61.12H246.96V62.56H239.04ZM239.04 59.68V58.24H246.96V59.68H239.04ZM245.04 62.56V61.12H249.72V52H251.16V62.56H245.04ZM245.04 59.68V58.24H246.84V52H248.28V59.68H245.04ZM258 68.8V52H264V68.8H258ZM264 68.8V52H270V68.8H264ZM270.84 68.8V52H272.28V68.8H270.84ZM273.72 68.8V52H275.16V68.8H273.72ZM276 68.8V52H282V68.8H276ZM282 68.8V52H288V68.8H282ZM288.84 68.8V52H290.28V68.8H288.84ZM291.72 68.8V52H293.16V68.8H291.72ZM306 68.8V52H312V68.8H306ZM312 68.8V52H318V68.8H312ZM318.84 68.8V52H320.28V68.8H318.84ZM321.72 68.8V52H323.16V68.8H321.72ZM324 68.8V52H330V68.8H324ZM330 68.8V52H336V68.8H330ZM336.84 68.8V52H338.28V68.8H336.84ZM339.72 68.8V52H341.16V68.8H339.72ZM354 68.8V52H360V68.8H354ZM360 68.8V52H366V68.8H360ZM366.84 68.8V52H368.28V68.8H366.84ZM369.72 68.8V52H371.16V68.8H369.72ZM372 68.8V52H378V68.8H372ZM378 68.8V52H384V68.8H378ZM384.84 68.8V52H386.28V68.8H384.84ZM387.72 68.8V52H389.16V68.8H387.72ZM396.84 62.56V52H398.28V61.12H402.96V62.56H396.84ZM399.72 59.68V52H401.16V58.24H402.96V59.68H399.72ZM402 68.8V52H408V68.8H402ZM408 68.8V52H414V68.8H408ZM414 68.8V52H420V68.8H414ZM420 68.8V52H426V68.8H420ZM426.84 68.8V52H428.28V68.8H426.84ZM429.72 68.8V52H431.16V68.8H429.72ZM0.84 75.56V65H2.28V74.12H6.96V75.56H0.84ZM3.72 72.68V65H5.16V71.24H6.96V72.68H3.72ZM5.04 75.56V74.12H12.96V75.56H5.04ZM5.04 72.68V71.24H12.96V72.68H5.04ZM11.04 75.56V74.12H15.72V65H17.16V75.56H11.04ZM11.04 72.68V71.24H12.84V65H14.28V72.68H11.04ZM30.84 75.56V65H32.28V74.12H36.96V75.56H30.84ZM33.72 72.68V65H35.16V71.24H36.96V72.68H33.72ZM35.04 75.56V74.12H42.96V75.56H35.04ZM35.04 72.68V71.24H42.96V72.68H35.04ZM41.04 75.56V74.12H45.72V65H47.16V75.56H41.04ZM41.04 72.68V71.24H42.84V65H44.28V72.68H41.04ZM48.84 75.56V65H50.28V74.12H54.96V75.56H48.84ZM51.72 72.68V65H53.16V71.24H54.96V72.68H51.72ZM53.04 75.56V74.12H60.96V75.56H53.04ZM53.04 72.68V71.24H60.96V72.68H53.04ZM59.04 75.56V74.12H63.72V65H65.16V75.56H59.04ZM59.04 72.68V71.24H60.84V65H62.28V72.68H59.04ZM78.84 75.56V65H80.28V74.12H84.96V75.56H78.84ZM81.72 72.68V65H83.16V71.24H84.96V72.68H81.72ZM83.04 75.56V74.12H90.96V75.56H83.04ZM83.04 72.68V71.24H90.96V72.68H83.04ZM89.04 75.56V74.12H93.72V65H95.16V75.56H89.04ZM89.04 72.68V71.24H90.84V65H92.28V72.68H89.04ZM96.84 75.56V65H98.28V74.12H102.96V75.56H96.84ZM99.72 72.68V65H101.16V71.24H102.96V72.68H99.72ZM101.04 75.56V74.12H108.96V75.56H101.04ZM101.04 72.68V71.24H108.96V72.68H101.04ZM107.04 75.56V74.12H111.72V65H113.16V75.56H107.04ZM107.04 72.68V71.24H108.84V65H110.28V72.68H107.04ZM126.84 75.56V65H128.28V74.12H132.96V75.56H126.84ZM129.72 72.68V65H131.16V71.24H132.96V72.68H129.72ZM131.04 75.56V74.12H138.96V75.56H131.04ZM131.04 72.68V71.24H138.96V72.68H131.04ZM137.04 75.56V74.12H141.72V65H143.16V75.56H137.04ZM137.04 72.68V71.24H138.84V65H140.28V72.68H137.04ZM144.84 75.56V65H146.28V74.12H150.96V75.56H144.84ZM147.72 72.68V65H149.16V71.24H150.96V72.68H147.72ZM149.04 75.56V74.12H156.96V75.56H149.04ZM149.04 72.68V71.24H156.96V72.68H149.04ZM155.04 75.56V74.12H162.96V75.56H155.04ZM155.04 72.68V71.24H162.96V72.68H155.04ZM161.04 75.56V74.12H168.96V75.56H161.04ZM161.04 72.68V71.24H168.96V72.68H161.04ZM167.04 75.56V74.12H174.96V75.56H167.04ZM167.04 72.68V71.24H174.96V72.68H167.04ZM173.04 75.56V74.12H180.96V75.56H173.04ZM173.04 72.68V71.24H180.96V72.68H173.04ZM179.04 75.56V74.12H186.96V75.56H179.04ZM179.04 72.68V71.24H186.96V72.68H179.04ZM185.04 75.56V74.12H189.72V65H191.16V75.56H185.04ZM185.04 72.68V71.24H186.84V65H188.28V72.68H185.04ZM192.84 75.56V65H194.28V74.12H198.96V75.56H192.84ZM195.72 72.68V65H197.16V71.24H198.96V72.68H195.72ZM197.04 75.56V74.12H204.96V75.56H197.04ZM197.04 72.68V71.24H204.96V72.68H197.04ZM203.04 75.56V74.12H207.72V65H209.16V75.56H203.04ZM203.04 72.68V71.24H204.84V65H206.28V72.68H203.04ZM210.84 75.56V65H212.28V74.12H216.96V75.56H210.84ZM213.72 72.68V65H215.16V71.24H216.96V72.68H213.72ZM215.04 75.56V74.12H222.96V75.56H215.04ZM215.04 72.68V71.24H222.96V72.68H215.04ZM221.04 75.56V74.12H225.72V65H227.16V75.56H221.04ZM221.04 72.68V71.24H222.84V65H224.28V72.68H221.04ZM258.84 75.56V65H260.28V74.12H264.96V75.56H258.84ZM261.72 72.68V65H263.16V71.24H264.96V72.68H261.72ZM263.04 75.56V74.12H270.96V75.56H263.04ZM263.04 72.68V71.24H270.96V72.68H263.04ZM269.04 75.56V74.12H273.72V65H275.16V75.56H269.04ZM269.04 72.68V71.24H270.84V65H272.28V72.68H269.04ZM276.84 75.56V65H278.28V74.12H282.96V75.56H276.84ZM279.72 72.68V65H281.16V71.24H282.96V72.68H279.72ZM281.04 75.56V74.12H288.96V75.56H281.04ZM281.04 72.68V71.24H288.96V72.68H281.04ZM287.04 75.56V74.12H291.72V65H293.16V75.56H287.04ZM287.04 72.68V71.24H288.84V65H290.28V72.68H287.04ZM306.84 75.56V65H308.28V74.12H312.96V75.56H306.84ZM309.72 72.68V65H311.16V71.24H312.96V72.68H309.72ZM311.04 75.56V74.12H318.96V75.56H311.04ZM311.04 72.68V71.24H318.96V72.68H311.04ZM317.04 75.56V74.12H321.72V65H323.16V75.56H317.04ZM317.04 72.68V71.24H318.84V65H320.28V72.68H317.04ZM324.84 75.56V65H326.28V74.12H330.96V75.56H324.84ZM327.72 72.68V65H329.16V71.24H330.96V72.68H327.72ZM329.04 75.56V74.12H336.96V75.56H329.04ZM329.04 72.68V71.24H336.96V72.68H329.04ZM335.04 75.56V74.12H339.72V65H341.16V75.56H335.04ZM335.04 72.68V71.24H336.84V65H338.28V72.68H335.04ZM354.84 75.56V65H356.28V74.12H360.96V75.56H354.84ZM357.72 72.68V65H359.16V71.24H360.96V72.68H357.72ZM359.04 75.56V74.12H366.96V75.56H359.04ZM359.04 72.68V71.24H366.96V72.68H359.04ZM365.04 75.56V74.12H369.72V65H371.16V75.56H365.04ZM365.04 72.68V71.24H366.84V65H368.28V72.68H365.04ZM372.84 75.56V65H374.28V74.12H378.96V75.56H372.84ZM375.72 72.68V65H377.16V71.24H378.96V72.68H375.72ZM377.04 75.56V74.12H384.96V75.56H377.04ZM377.04 72.68V71.24H384.96V72.68H377.04ZM383.04 75.56V74.12H387.72V65H389.16V75.56H383.04ZM383.04 72.68V71.24H384.84V65H386.28V72.68H383.04ZM402.84 75.56V65H404.28V74.12H408.96V75.56H402.84ZM405.72 72.68V65H407.16V71.24H408.96V72.68H405.72ZM407.04 75.56V74.12H414.96V75.56H407.04ZM407.04 72.68V71.24H414.96V72.68H407.04ZM413.04 75.56V74.12H420.96V75.56H413.04ZM413.04 72.68V71.24H420.96V72.68H413.04ZM419.04 75.56V74.12H426.96V75.56H419.04ZM419.04 72.68V71.24H426.96V72.68H419.04ZM425.04 75.56V74.12H429.72V65H431.16V75.56H425.04ZM425.04 72.68V71.24H426.84V65H428.28V72.68H425.04Z" fill="white"/>
</svg>
