<svg width="518" height="91" viewBox="0 0 518 91" fill="none" xmlns="http://www.w3.org/2000/svg">
<path d="M0.88 16.6V0.759999H8.32V16.6H0.88ZM8.07531 16.6V0.759999H15.5153V16.6H8.07531ZM19.5906 16.6V7.96H15.1506V6.76H20.7906V16.6H19.5906ZM17.1906 16.6V10.36H15.1506V9.16H18.3906V16.6H17.1906ZM36.8566 16.6V0.759999H44.2966V16.6H36.8566ZM44.0519 16.6V0.759999H51.4919V16.6H44.0519ZM55.5672 16.6V7.96H51.1272V6.76H56.7672V16.6H55.5672ZM53.1672 16.6V10.36H51.1272V9.16H54.3672V16.6H53.1672ZM65.6378 16.6V0.759999H73.0778V16.6H65.6378ZM72.8331 16.6V0.759999H80.2731V16.6H72.8331ZM80.0284 16.6V0.759999H87.4684V16.6H80.0284ZM87.2237 16.6V0.759999H94.6638V16.6H87.2237ZM94.4191 16.6V0.759999H101.859V16.6H94.4191ZM105.934 16.6V7.96H101.494V6.76H107.134V16.6H105.934ZM103.534 16.6V10.36H101.494V9.16H104.734V16.6H103.534ZM116.005 16.6V0.759999H123.445V16.6H116.005ZM123.2 16.6V0.759999H130.64V16.6H123.2ZM130.396 16.6V0.759999H137.836V16.6H130.396ZM137.591 16.6V0.759999H145.031V16.6H137.591ZM144.786 16.6V0.759999H152.226V16.6H144.786ZM151.982 16.6V0.759999H159.422V16.6H151.982ZM163.497 16.6V7.96H159.057V6.76H164.697V16.6H163.497ZM161.097 16.6V10.36H159.057V9.16H162.297V16.6H161.097ZM173.567 16.6V0.759999H181.008V16.6H173.567ZM180.763 16.6V0.759999H188.203V16.6H180.763ZM187.958 16.6V0.759999H195.398V16.6H187.958ZM195.153 16.6V0.759999H202.593V16.6H195.153ZM202.349 16.6V0.759999H209.789V16.6H202.349ZM209.544 16.6V0.759999H216.984V16.6H209.544ZM216.739 16.6V0.759999H224.179V16.6H216.739ZM228.255 16.6V7.96H223.815V6.76H229.455V16.6H228.255ZM225.855 16.6V10.36H223.815V9.16H227.055V16.6H225.855ZM231.13 16.6V0.759999H238.57V16.6H231.13ZM238.325 16.6V0.759999H245.765V16.6H238.325ZM249.841 16.6V7.96H245.401V6.76H251.041V16.6H249.841ZM247.441 16.6V10.36H245.401V9.16H248.641V16.6H247.441ZM252.716 16.6V0.759999H260.156V16.6H252.716ZM259.911 16.6V0.759999H267.351V16.6H259.911ZM267.107 16.6V0.759999H274.547V16.6H267.107ZM278.622 16.6V7.96H274.182V6.76H279.822V16.6H278.622ZM276.222 16.6V10.36H274.182V9.16H277.422V16.6H276.222ZM303.083 16.6V0.759999H310.523V16.6H303.083ZM310.278 16.6V0.759999H317.718V16.6H310.278ZM317.474 16.6V0.759999H324.914V16.6H317.474ZM328.989 16.6V7.96H324.549V6.76H330.189V16.6H328.989ZM326.589 16.6V10.36H324.549V9.16H327.789V16.6H326.589ZM331.864 16.6V0.759999H339.304V16.6H331.864ZM339.06 16.6V0.759999H346.5V16.6H339.06ZM346.255 16.6V0.759999H353.695V16.6H346.255ZM353.45 16.6V0.759999H360.89V16.6H353.45ZM360.646 16.6V0.759999H368.086V16.6H360.646ZM367.841 16.6V0.759999H375.281V16.6H367.841ZM379.356 16.6V7.96H374.916V6.76H380.556V16.6H379.356ZM376.956 16.6V10.36H374.916V9.16H378.156V16.6H376.956ZM396.622 16.6V0.759999H404.062V16.6H396.622ZM403.817 16.6V0.759999H411.258V16.6H403.817ZM411.013 16.6V0.759999H418.453V16.6H411.013ZM418.208 16.6V0.759999H425.648V16.6H418.208ZM425.403 16.6V0.759999H432.843V16.6H425.403ZM436.919 16.6V7.96H432.479V6.76H438.119V16.6H436.919ZM434.519 16.6V10.36H432.479V9.16H435.719V16.6H434.519ZM446.989 16.6V0.759999H454.429V16.6H446.989ZM454.185 16.6V0.759999H461.625V16.6H454.185ZM461.38 16.6V0.759999H468.82V16.6H461.38ZM472.895 16.6V7.96H468.455V6.76H474.095V16.6H472.895ZM470.495 16.6V10.36H468.455V9.16H471.695V16.6H470.495ZM497.357 16.6V0.759999H504.797V16.6H497.357ZM504.552 16.6V0.759999H511.992V16.6H504.552ZM516.067 16.6V7.96H511.627V6.76H517.267V16.6H516.067ZM513.667 16.6V10.36H511.627V9.16H514.867V16.6H513.667ZM0.88 32.6V16.76H8.32V32.6H0.88ZM8.07531 32.6V16.76H15.5153V32.6H8.07531ZM19.5906 32.6V16.76H20.7906V32.6H19.5906ZM17.1906 32.6V16.76H18.3906V32.6H17.1906ZM36.8566 32.6V16.76H44.2966V32.6H36.8566ZM44.0519 32.6V16.76H51.4919V32.6H44.0519ZM55.5672 32.6V16.76H56.7672V32.6H55.5672ZM53.1672 32.6V16.76H54.3672V32.6H53.1672ZM58.4425 32.6V16.76H65.8825V32.6H58.4425ZM65.6378 32.6V16.76H73.0778V32.6H65.6378ZM74.7531 32.6V22.76H80.3931V23.96H75.9531V32.6H74.7531ZM77.1531 32.6V25.16H80.3931V26.36H78.3531V32.6H77.1531ZM79.9084 23.96V22.76H87.5884V23.96H79.9084ZM79.9084 26.36V25.16H87.5884V26.36H79.9084ZM87.1037 23.96V22.76H94.7838V23.96H87.1037ZM87.1037 26.36V25.16H94.7838V26.36H87.1037ZM94.4191 32.6V16.76H101.859V32.6H94.4191ZM101.614 32.6V16.76H109.054V32.6H101.614ZM113.13 32.6V23.96H108.69V22.76H114.33V32.6H113.13ZM110.73 32.6V26.36H108.69V25.16H111.93V32.6H110.73ZM116.005 32.6V16.76H123.445V32.6H116.005ZM123.2 32.6V16.76H130.64V32.6H123.2ZM132.316 32.6V22.76H137.956V23.96H133.516V32.6H132.316ZM134.716 32.6V25.16H137.956V26.36H135.916V32.6H134.716ZM137.471 23.96V22.76H145.151V23.96H137.471ZM137.471 26.36V25.16H145.151V26.36H137.471ZM144.666 23.96V22.76H152.346V23.96H144.666ZM144.666 26.36V25.16H152.346V26.36H144.666ZM151.982 32.6V16.76H159.422V32.6H151.982ZM159.177 32.6V16.76H166.617V32.6H159.177ZM170.692 32.6V23.96H166.252V22.76H171.892V32.6H170.692ZM168.292 32.6V26.36H166.252V25.16H169.492V32.6H168.292ZM173.567 32.6V16.76H181.008V32.6H173.567ZM180.763 32.6V16.76H188.203V32.6H180.763ZM189.878 32.6V22.76H195.518V23.96H191.078V32.6H189.878ZM192.278 32.6V25.16H195.518V26.36H193.478V32.6H192.278ZM195.033 23.96V22.76H202.713V23.96H195.033ZM195.033 26.36V25.16H202.713V26.36H195.033ZM202.229 23.96V22.76H209.909V23.96H202.229ZM202.229 26.36V25.16H209.909V26.36H202.229ZM209.424 23.96V22.76H217.104V23.96H209.424ZM209.424 26.36V25.16H217.104V26.36H209.424ZM216.619 23.96V22.76H224.299V23.96H216.619ZM216.619 26.36V25.16H224.299V26.36H216.619ZM223.815 26.36V25.16H228.255V16.76H229.455V26.36H223.815ZM223.815 23.96V22.76H225.855V16.76H227.055V23.96H223.815ZM231.13 32.6V16.76H238.57V32.6H231.13ZM238.325 32.6V16.76H245.765V32.6H238.325ZM249.841 32.6V16.76H251.041V32.6H249.841ZM247.441 32.6V16.76H248.641V32.6H247.441ZM252.716 32.6V16.76H260.156V32.6H252.716ZM259.911 32.6V16.76H267.351V32.6H259.911ZM267.107 32.6V16.76H274.547V32.6H267.107ZM274.302 32.6V16.76H281.742V32.6H274.302ZM285.817 32.6V23.96H281.377V22.76H287.017V32.6H285.817ZM283.417 32.6V26.36H281.377V25.16H284.617V32.6H283.417ZM295.888 32.6V16.76H303.328V32.6H295.888ZM303.083 32.6V16.76H310.523V32.6H303.083ZM310.278 32.6V16.76H317.718V32.6H310.278ZM317.474 32.6V16.76H324.914V32.6H317.474ZM328.989 32.6V16.76H330.189V32.6H328.989ZM326.589 32.6V16.76H327.789V32.6H326.589ZM331.864 32.6V16.76H339.304V32.6H331.864ZM339.06 32.6V16.76H346.5V32.6H339.06ZM348.175 32.6V22.76H353.815V23.96H349.375V32.6H348.175ZM350.575 32.6V25.16H353.815V26.36H351.775V32.6H350.575ZM353.33 23.96V22.76H361.01V23.96H353.33ZM353.33 26.36V25.16H361.01V26.36H353.33ZM360.526 23.96V22.76H368.206V23.96H360.526ZM360.526 26.36V25.16H368.206V26.36H360.526ZM367.841 32.6V16.76H375.281V32.6H367.841ZM375.036 32.6V16.76H382.476V32.6H375.036ZM386.552 32.6V23.96H382.112V22.76H387.752V32.6H386.552ZM384.152 32.6V26.36H382.112V25.16H385.352V32.6H384.152ZM389.427 32.6V16.76H396.867V32.6H389.427ZM396.622 32.6V16.76H404.062V32.6H396.622ZM405.738 32.6V22.76H411.378V23.96H406.938V32.6H405.738ZM408.138 32.6V25.16H411.378V26.36H409.338V32.6H408.138ZM410.893 23.96V22.76H418.573V23.96H410.893ZM410.893 26.36V25.16H418.573V26.36H410.893ZM418.088 23.96V22.76H425.768V23.96H418.088ZM418.088 26.36V25.16H425.768V26.36H418.088ZM425.403 32.6V16.76H432.843V32.6H425.403ZM432.599 32.6V16.76H440.039V32.6H432.599ZM444.114 32.6V23.96H439.674V22.76H445.314V32.6H444.114ZM441.714 32.6V26.36H439.674V25.16H442.914V32.6H441.714ZM446.989 32.6V16.76H454.429V32.6H446.989ZM454.185 32.6V16.76H461.625V32.6H454.185ZM461.38 32.6V16.76H468.82V32.6H461.38ZM468.575 32.6V16.76H476.015V32.6H468.575ZM480.091 32.6V23.96H475.651V22.76H481.291V32.6H480.091ZM477.691 32.6V26.36H475.651V25.16H478.891V32.6H477.691ZM497.357 32.6V16.76H504.797V32.6H497.357ZM504.552 32.6V16.76H511.992V32.6H504.552ZM516.067 32.6V16.76H517.267V32.6H516.067ZM513.667 32.6V16.76H514.867V32.6H513.667ZM0.88 48.6V32.76H8.32V48.6H0.88ZM8.07531 48.6V32.76H15.5153V48.6H8.07531ZM15.2706 48.6V32.76H22.7106V48.6H15.2706ZM22.4659 48.6V32.76H29.9059V48.6H22.4659ZM29.6612 48.6V32.76H37.1013V48.6H29.6612ZM36.8566 48.6V32.76H44.2966V48.6H36.8566ZM44.0519 48.6V32.76H51.4919V48.6H44.0519ZM55.5672 48.6V32.76H56.7672V48.6H55.5672ZM53.1672 48.6V32.76H54.3672V48.6H53.1672ZM58.4425 48.6V32.76H65.8825V48.6H58.4425ZM65.6378 48.6V32.76H73.0778V48.6H65.6378ZM72.8331 48.6V32.76H80.2731V48.6H72.8331ZM80.0284 48.6V32.76H87.4684V48.6H80.0284ZM87.2237 48.6V32.76H94.6638V48.6H87.2237ZM94.4191 48.6V32.76H101.859V48.6H94.4191ZM101.614 48.6V32.76H109.054V48.6H101.614ZM113.13 48.6V32.76H114.33V48.6H113.13ZM110.73 48.6V32.76H111.93V48.6H110.73ZM116.005 48.6V32.76H123.445V48.6H116.005ZM123.2 48.6V32.76H130.64V48.6H123.2ZM130.396 48.6V32.76H137.836V48.6H130.396ZM137.591 48.6V32.76H145.031V48.6H137.591ZM144.786 48.6V32.76H152.226V48.6H144.786ZM151.982 48.6V32.76H159.422V48.6H151.982ZM161.097 48.6V38.76H166.737V39.96H162.297V48.6H161.097ZM163.497 48.6V41.16H166.737V42.36H164.697V48.6H163.497ZM166.252 42.36V41.16H170.692V32.76H171.892V42.36H166.252ZM166.252 39.96V38.76H168.292V32.76H169.492V39.96H166.252ZM173.567 48.6V32.76H181.008V48.6H173.567ZM180.763 48.6V32.76H188.203V48.6H180.763ZM187.958 48.6V32.76H195.398V48.6H187.958ZM195.153 48.6V32.76H202.593V48.6H195.153ZM202.349 48.6V32.76H209.789V48.6H202.349ZM209.544 48.6V32.76H216.984V48.6H209.544ZM216.739 48.6V32.76H224.179V48.6H216.739ZM228.255 48.6V39.96H223.815V38.76H229.455V48.6H228.255ZM225.855 48.6V42.36H223.815V41.16H227.055V48.6H225.855ZM231.13 48.6V32.76H238.57V48.6H231.13ZM238.325 48.6V32.76H245.765V48.6H238.325ZM249.841 48.6V32.76H251.041V48.6H249.841ZM247.441 48.6V32.76H248.641V48.6H247.441ZM252.716 48.6V32.76H260.156V48.6H252.716ZM259.911 48.6V32.76H267.351V48.6H259.911ZM269.027 48.6V38.76H274.667V39.96H270.227V48.6H269.027ZM271.427 48.6V41.16H274.667V42.36H272.627V48.6H271.427ZM274.302 48.6V32.76H281.742V48.6H274.302ZM281.497 48.6V32.76H288.937V48.6H281.497ZM288.692 48.6V32.76H296.133V48.6H288.692ZM295.888 48.6V32.76H303.328V48.6H295.888ZM305.003 48.6V38.76H310.643V39.96H306.203V48.6H305.003ZM307.403 48.6V41.16H310.643V42.36H308.603V48.6H307.403ZM310.278 48.6V32.76H317.718V48.6H310.278ZM317.474 48.6V32.76H324.914V48.6H317.474ZM328.989 48.6V32.76H330.189V48.6H328.989ZM326.589 48.6V32.76H327.789V48.6H326.589ZM331.864 48.6V32.76H339.304V48.6H331.864ZM339.06 48.6V32.76H346.5V48.6H339.06ZM346.255 48.6V32.76H353.695V48.6H346.255ZM353.45 48.6V32.76H360.89V48.6H353.45ZM360.646 48.6V32.76H368.086V48.6H360.646ZM367.841 48.6V32.76H375.281V48.6H367.841ZM376.956 48.6V38.76H382.596V39.96H378.156V48.6H376.956ZM379.356 48.6V41.16H382.596V42.36H380.556V48.6H379.356ZM382.112 42.36V41.16H386.552V32.76H387.752V42.36H382.112ZM382.112 39.96V38.76H384.152V32.76H385.352V39.96H382.112ZM389.427 48.6V32.76H396.867V48.6H389.427ZM396.622 48.6V32.76H404.062V48.6H396.622ZM403.817 48.6V32.76H411.258V48.6H403.817ZM411.013 48.6V32.76H418.453V48.6H411.013ZM418.208 48.6V32.76H425.648V48.6H418.208ZM425.403 48.6V32.76H432.843V48.6H425.403ZM432.599 48.6V32.76H440.039V48.6H432.599ZM444.114 48.6V32.76H445.314V48.6H444.114ZM441.714 48.6V32.76H442.914V48.6H441.714ZM446.989 48.6V32.76H454.429V48.6H446.989ZM454.185 48.6V32.76H461.625V48.6H454.185ZM463.3 48.6V38.76H468.94V39.96H464.5V48.6H463.3ZM465.7 48.6V41.16H468.94V42.36H466.9V48.6H465.7ZM468.575 48.6V32.76H476.015V48.6H468.575ZM475.771 48.6V32.76H483.211V48.6H475.771ZM487.286 48.6V39.96H482.846V38.76H488.486V48.6H487.286ZM484.886 48.6V42.36H482.846V41.16H486.086V48.6H484.886ZM497.357 48.6V32.76H504.797V48.6H497.357ZM504.552 48.6V32.76H511.992V48.6H504.552ZM516.067 48.6V32.76H517.267V48.6H516.067ZM513.667 48.6V32.76H514.867V48.6H513.667ZM0.88 64.6V48.76H8.32V64.6H0.88ZM8.07531 64.6V48.76H15.5153V64.6H8.07531ZM17.1906 64.6V54.76H22.8306V55.96H18.3906V64.6H17.1906ZM19.5906 64.6V57.16H22.8306V58.36H20.7906V64.6H19.5906ZM22.3459 55.96V54.76H30.0259V55.96H22.3459ZM22.3459 58.36V57.16H30.0259V58.36H22.3459ZM29.5412 55.96V54.76H37.2213V55.96H29.5412ZM29.5412 58.36V57.16H37.2213V58.36H29.5412ZM36.8566 64.6V48.76H44.2966V64.6H36.8566ZM44.0519 64.6V48.76H51.4919V64.6H44.0519ZM55.5672 64.6V48.76H56.7672V64.6H55.5672ZM53.1672 64.6V48.76H54.3672V64.6H53.1672ZM58.4425 64.6V48.76H65.8825V64.6H58.4425ZM65.6378 64.6V48.76H73.0778V64.6H65.6378ZM74.7531 64.6V54.76H80.3931V55.96H75.9531V64.6H74.7531ZM77.1531 64.6V57.16H80.3931V58.36H78.3531V64.6H77.1531ZM79.9084 55.96V54.76H87.5884V55.96H79.9084ZM79.9084 58.36V57.16H87.5884V58.36H79.9084ZM87.1037 55.96V54.76H94.7838V55.96H87.1037ZM87.1037 58.36V57.16H94.7838V58.36H87.1037ZM94.4191 64.6V48.76H101.859V64.6H94.4191ZM101.614 64.6V48.76H109.054V64.6H101.614ZM113.13 64.6V48.76H114.33V64.6H113.13ZM110.73 64.6V48.76H111.93V64.6H110.73ZM116.005 64.6V48.76H123.445V64.6H116.005ZM123.2 64.6V48.76H130.64V64.6H123.2ZM132.316 64.6V54.76H137.956V55.96H133.516V64.6H132.316ZM134.716 64.6V57.16H137.956V58.36H135.916V64.6H134.716ZM137.471 55.96V54.76H145.151V55.96H137.471ZM137.471 58.36V57.16H145.151V58.36H137.471ZM144.666 55.96V54.76H152.346V55.96H144.666ZM144.666 58.36V57.16H152.346V58.36H144.666ZM151.982 64.6V48.76H159.422V64.6H151.982ZM159.177 64.6V48.76H166.617V64.6H159.177ZM170.692 64.6V55.96H166.252V54.76H171.892V64.6H170.692ZM168.292 64.6V58.36H166.252V57.16H169.492V64.6H168.292ZM175.488 58.36V48.76H176.688V57.16H181.128V58.36H175.488ZM177.888 55.96V48.76H179.088V54.76H181.128V55.96H177.888ZM180.643 55.96V54.76H188.323V55.96H180.643ZM180.643 58.36V57.16H188.323V58.36H180.643ZM187.838 55.96V54.76H195.518V55.96H187.838ZM187.838 58.36V57.16H195.518V58.36H187.838ZM195.033 55.96V54.76H202.713V55.96H195.033ZM195.033 58.36V57.16H202.713V58.36H195.033ZM202.229 55.96V54.76H209.909V55.96H202.229ZM202.229 58.36V57.16H209.909V58.36H202.229ZM209.544 64.6V48.76H216.984V64.6H209.544ZM216.739 64.6V48.76H224.179V64.6H216.739ZM228.255 64.6V48.76H229.455V64.6H228.255ZM225.855 64.6V48.76H227.055V64.6H225.855ZM231.13 64.6V48.76H238.57V64.6H231.13ZM238.325 64.6V48.76H245.765V64.6H238.325ZM249.841 64.6V48.76H251.041V64.6H249.841ZM247.441 64.6V48.76H248.641V64.6H247.441ZM252.716 64.6V48.76H260.156V64.6H252.716ZM259.911 64.6V48.76H267.351V64.6H259.911ZM271.427 64.6V48.76H272.627V64.6H271.427ZM269.027 64.6V48.76H270.227V64.6H269.027ZM276.222 58.36V48.76H277.422V57.16H281.862V58.36H276.222ZM278.622 55.96V48.76H279.822V54.76H281.862V55.96H278.622ZM281.497 64.6V48.76H288.937V64.6H281.497ZM288.692 64.6V48.76H296.133V64.6H288.692ZM297.808 64.6V54.76H303.448V55.96H299.008V64.6H297.808ZM300.208 64.6V57.16H303.448V58.36H301.408V64.6H300.208ZM302.963 58.36V57.16H307.403V48.76H308.603V58.36H302.963ZM302.963 55.96V54.76H305.003V48.76H306.203V55.96H302.963ZM310.278 64.6V48.76H317.718V64.6H310.278ZM317.474 64.6V48.76H324.914V64.6H317.474ZM328.989 64.6V48.76H330.189V64.6H328.989ZM326.589 64.6V48.76H327.789V64.6H326.589ZM331.864 64.6V48.76H339.304V64.6H331.864ZM339.06 64.6V48.76H346.5V64.6H339.06ZM348.175 64.6V54.76H353.815V55.96H349.375V64.6H348.175ZM350.575 64.6V57.16H353.815V58.36H351.775V64.6H350.575ZM353.33 55.96V54.76H361.01V55.96H353.33ZM353.33 58.36V57.16H361.01V58.36H353.33ZM360.526 55.96V54.76H368.206V55.96H360.526ZM360.526 58.36V57.16H368.206V58.36H360.526ZM367.841 64.6V48.76H375.281V64.6H367.841ZM375.036 64.6V48.76H382.476V64.6H375.036ZM386.552 64.6V55.96H382.112V54.76H387.752V64.6H386.552ZM384.152 64.6V58.36H382.112V57.16H385.352V64.6H384.152ZM389.427 64.6V48.76H396.867V64.6H389.427ZM396.622 64.6V48.76H404.062V64.6H396.622ZM405.738 64.6V54.76H411.378V55.96H406.938V64.6H405.738ZM408.138 64.6V57.16H411.378V58.36H409.338V64.6H408.138ZM410.893 55.96V54.76H418.573V55.96H410.893ZM410.893 58.36V57.16H418.573V58.36H410.893ZM418.088 55.96V54.76H425.768V55.96H418.088ZM418.088 58.36V57.16H425.768V58.36H418.088ZM425.403 64.6V48.76H432.843V64.6H425.403ZM432.599 64.6V48.76H440.039V64.6H432.599ZM444.114 64.6V48.76H445.314V64.6H444.114ZM441.714 64.6V48.76H442.914V64.6H441.714ZM446.989 64.6V48.76H454.429V64.6H446.989ZM454.185 64.6V48.76H461.625V64.6H454.185ZM465.7 64.6V48.76H466.9V64.6H465.7ZM463.3 64.6V48.76H464.5V64.6H463.3ZM470.495 58.36V48.76H471.695V57.16H476.135V58.36H470.495ZM472.895 55.96V48.76H474.095V54.76H476.135V55.96H472.895ZM475.771 64.6V48.76H483.211V64.6H475.771ZM482.966 64.6V48.76H490.406V64.6H482.966ZM494.481 64.6V55.96H490.041V54.76H495.681V64.6H494.481ZM492.081 64.6V58.36H490.041V57.16H493.281V64.6H492.081ZM497.357 64.6V48.76H504.797V64.6H497.357ZM504.552 64.6V48.76H511.992V64.6H504.552ZM516.067 64.6V48.76H517.267V64.6H516.067ZM513.667 64.6V48.76H514.867V64.6H513.667ZM0.88 80.6V64.76H8.32V80.6H0.88ZM8.07531 80.6V64.76H15.5153V80.6H8.07531ZM19.5906 80.6V64.76H20.7906V80.6H19.5906ZM17.1906 80.6V64.76H18.3906V80.6H17.1906ZM36.8566 80.6V64.76H44.2966V80.6H36.8566ZM44.0519 80.6V64.76H51.4919V80.6H44.0519ZM55.5672 80.6V64.76H56.7672V80.6H55.5672ZM53.1672 80.6V64.76H54.3672V80.6H53.1672ZM58.4425 80.6V64.76H65.8825V80.6H58.4425ZM65.6378 80.6V64.76H73.0778V80.6H65.6378ZM77.1531 80.6V64.76H78.3531V80.6H77.1531ZM74.7531 80.6V64.76H75.9531V80.6H74.7531ZM94.4191 80.6V64.76H101.859V80.6H94.4191ZM101.614 80.6V64.76H109.054V80.6H101.614ZM113.13 80.6V64.76H114.33V80.6H113.13ZM110.73 80.6V64.76H111.93V80.6H110.73ZM116.005 80.6V64.76H123.445V80.6H116.005ZM123.2 80.6V64.76H130.64V80.6H123.2ZM134.716 80.6V64.76H135.916V80.6H134.716ZM132.316 80.6V64.76H133.516V80.6H132.316ZM151.982 80.6V64.76H159.422V80.6H151.982ZM159.177 80.6V64.76H166.617V80.6H159.177ZM170.692 80.6V64.76H171.892V80.6H170.692ZM168.292 80.6V64.76H169.492V80.6H168.292ZM173.567 80.6V64.76H181.008V80.6H173.567ZM180.763 80.6V64.76H188.203V80.6H180.763ZM187.958 80.6V64.76H195.398V80.6H187.958ZM195.153 80.6V64.76H202.593V80.6H195.153ZM202.349 80.6V64.76H209.789V80.6H202.349ZM209.544 80.6V64.76H216.984V80.6H209.544ZM216.739 80.6V64.76H224.179V80.6H216.739ZM228.255 80.6V64.76H229.455V80.6H228.255ZM225.855 80.6V64.76H227.055V80.6H225.855ZM231.13 80.6V64.76H238.57V80.6H231.13ZM238.325 80.6V64.76H245.765V80.6H238.325ZM249.841 80.6V64.76H251.041V80.6H249.841ZM247.441 80.6V64.76H248.641V80.6H247.441ZM252.716 80.6V64.76H260.156V80.6H252.716ZM259.911 80.6V64.76H267.351V80.6H259.911ZM271.427 80.6V64.76H272.627V80.6H271.427ZM269.027 80.6V64.76H270.227V80.6H269.027ZM283.417 74.36V64.76H284.617V73.16H289.057V74.36H283.417ZM285.817 71.96V64.76H287.017V70.76H289.057V71.96H285.817ZM288.572 71.96V70.76H296.253V71.96H288.572ZM288.572 74.36V73.16H296.253V74.36H288.572ZM295.768 74.36V73.16H300.208V64.76H301.408V74.36H295.768ZM295.768 71.96V70.76H297.808V64.76H299.008V71.96H295.768ZM310.278 80.6V64.76H317.718V80.6H310.278ZM317.474 80.6V64.76H324.914V80.6H317.474ZM328.989 80.6V64.76H330.189V80.6H328.989ZM326.589 80.6V64.76H327.789V80.6H326.589ZM331.864 80.6V64.76H339.304V80.6H331.864ZM339.06 80.6V64.76H346.5V80.6H339.06ZM350.575 80.6V64.76H351.775V80.6H350.575ZM348.175 80.6V64.76H349.375V80.6H348.175ZM367.841 80.6V64.76H375.281V80.6H367.841ZM375.036 80.6V64.76H382.476V80.6H375.036ZM386.552 80.6V64.76H387.752V80.6H386.552ZM384.152 80.6V64.76H385.352V80.6H384.152ZM389.427 80.6V64.76H396.867V80.6H389.427ZM396.622 80.6V64.76H404.062V80.6H396.622ZM408.138 80.6V64.76H409.338V80.6H408.138ZM405.738 80.6V64.76H406.938V80.6H405.738ZM425.403 80.6V64.76H432.843V80.6H425.403ZM432.599 80.6V64.76H440.039V80.6H432.599ZM444.114 80.6V64.76H445.314V80.6H444.114ZM441.714 80.6V64.76H442.914V80.6H441.714ZM446.989 80.6V64.76H454.429V80.6H446.989ZM454.185 80.6V64.76H461.625V80.6H454.185ZM465.7 80.6V64.76H466.9V80.6H465.7ZM463.3 80.6V64.76H464.5V80.6H463.3ZM477.691 74.36V64.76H478.891V73.16H483.331V74.36H477.691ZM480.091 71.96V64.76H481.291V70.76H483.331V71.96H480.091ZM482.966 80.6V64.76H490.406V80.6H482.966ZM490.161 80.6V64.76H497.601V80.6H490.161ZM497.357 80.6V64.76H504.797V80.6H497.357ZM504.552 80.6V64.76H511.992V80.6H504.552ZM516.067 80.6V64.76H517.267V80.6H516.067ZM513.667 80.6V64.76H514.867V80.6H513.667ZM2.8 90.36V80.76H4V89.16H8.44V90.36H2.8ZM5.2 87.96V80.76H6.4V86.76H8.44V87.96H5.2ZM7.95531 87.96V86.76H15.6353V87.96H7.95531ZM7.95531 90.36V89.16H15.6353V90.36H7.95531ZM15.1506 90.36V89.16H19.5906V80.76H20.7906V90.36H15.1506ZM15.1506 87.96V86.76H17.1906V80.76H18.3906V87.96H15.1506ZM38.7766 90.36V80.76H39.9766V89.16H44.4166V90.36H38.7766ZM41.1766 87.96V80.76H42.3766V86.76H44.4166V87.96H41.1766ZM43.9319 87.96V86.76H51.6119V87.96H43.9319ZM43.9319 90.36V89.16H51.6119V90.36H43.9319ZM51.1272 90.36V89.16H55.5672V80.76H56.7672V90.36H51.1272ZM51.1272 87.96V86.76H53.1672V80.76H54.3672V87.96H51.1272ZM60.3625 90.36V80.76H61.5625V89.16H66.0025V90.36H60.3625ZM62.7625 87.96V80.76H63.9625V86.76H66.0025V87.96H62.7625ZM65.5178 87.96V86.76H73.1978V87.96H65.5178ZM65.5178 90.36V89.16H73.1978V90.36H65.5178ZM72.7131 90.36V89.16H77.1531V80.76H78.3531V90.36H72.7131ZM72.7131 87.96V86.76H74.7531V80.76H75.9531V87.96H72.7131ZM96.3391 90.36V80.76H97.5391V89.16H101.979V90.36H96.3391ZM98.7391 87.96V80.76H99.9391V86.76H101.979V87.96H98.7391ZM101.494 87.96V86.76H109.174V87.96H101.494ZM101.494 90.36V89.16H109.174V90.36H101.494ZM108.69 90.36V89.16H113.13V80.76H114.33V90.36H108.69ZM108.69 87.96V86.76H110.73V80.76H111.93V87.96H108.69ZM117.925 90.36V80.76H119.125V89.16H123.565V90.36H117.925ZM120.325 87.96V80.76H121.525V86.76H123.565V87.96H120.325ZM123.08 87.96V86.76H130.76V87.96H123.08ZM123.08 90.36V89.16H130.76V90.36H123.08ZM130.276 90.36V89.16H134.716V80.76H135.916V90.36H130.276ZM130.276 87.96V86.76H132.316V80.76H133.516V87.96H130.276ZM153.902 90.36V80.76H155.102V89.16H159.542V90.36H153.902ZM156.302 87.96V80.76H157.502V86.76H159.542V87.96H156.302ZM159.057 87.96V86.76H166.737V87.96H159.057ZM159.057 90.36V89.16H166.737V90.36H159.057ZM166.252 90.36V89.16H170.692V80.76H171.892V90.36H166.252ZM166.252 87.96V86.76H168.292V80.76H169.492V87.96H166.252ZM175.488 90.36V80.76H176.688V89.16H181.128V90.36H175.488ZM177.888 87.96V80.76H179.088V86.76H181.128V87.96H177.888ZM180.643 87.96V86.76H188.323V87.96H180.643ZM180.643 90.36V89.16H188.323V90.36H180.643ZM187.838 87.96V86.76H195.518V87.96H187.838ZM187.838 90.36V89.16H195.518V90.36H187.838ZM195.033 87.96V86.76H202.713V87.96H195.033ZM195.033 90.36V89.16H202.713V90.36H195.033ZM202.229 87.96V86.76H209.909V87.96H202.229ZM202.229 90.36V89.16H209.909V90.36H202.229ZM209.424 87.96V86.76H217.104V87.96H209.424ZM209.424 90.36V89.16H217.104V90.36H209.424ZM216.619 87.96V86.76H224.299V87.96H216.619ZM216.619 90.36V89.16H224.299V90.36H216.619ZM223.815 90.36V89.16H228.255V80.76H229.455V90.36H223.815ZM223.815 87.96V86.76H225.855V80.76H227.055V87.96H223.815ZM233.05 90.36V80.76H234.25V89.16H238.69V90.36H233.05ZM235.45 87.96V80.76H236.65V86.76H238.69V87.96H235.45ZM238.205 87.96V86.76H245.885V87.96H238.205ZM238.205 90.36V89.16H245.885V90.36H238.205ZM245.401 90.36V89.16H249.841V80.76H251.041V90.36H245.401ZM245.401 87.96V86.76H247.441V80.76H248.641V87.96H245.401ZM254.636 90.36V80.76H255.836V89.16H260.276V90.36H254.636ZM257.036 87.96V80.76H258.236V86.76H260.276V87.96H257.036ZM259.791 87.96V86.76H267.471V87.96H259.791ZM259.791 90.36V89.16H267.471V90.36H259.791ZM266.987 90.36V89.16H271.427V80.76H272.627V90.36H266.987ZM266.987 87.96V86.76H269.027V80.76H270.227V87.96H266.987ZM312.198 90.36V80.76H313.398V89.16H317.838V90.36H312.198ZM314.598 87.96V80.76H315.798V86.76H317.838V87.96H314.598ZM317.354 87.96V86.76H325.034V87.96H317.354ZM317.354 90.36V89.16H325.034V90.36H317.354ZM324.549 90.36V89.16H328.989V80.76H330.189V90.36H324.549ZM324.549 87.96V86.76H326.589V80.76H327.789V87.96H324.549ZM333.784 90.36V80.76H334.984V89.16H339.424V90.36H333.784ZM336.184 87.96V80.76H337.384V86.76H339.424V87.96H336.184ZM338.94 87.96V86.76H346.62V87.96H338.94ZM338.94 90.36V89.16H346.62V90.36H338.94ZM346.135 90.36V89.16H350.575V80.76H351.775V90.36H346.135ZM346.135 87.96V86.76H348.175V80.76H349.375V87.96H346.135ZM369.761 90.36V80.76H370.961V89.16H375.401V90.36H369.761ZM372.161 87.96V80.76H373.361V86.76H375.401V87.96H372.161ZM374.916 87.96V86.76H382.596V87.96H374.916ZM374.916 90.36V89.16H382.596V90.36H374.916ZM382.112 90.36V89.16H386.552V80.76H387.752V90.36H382.112ZM382.112 87.96V86.76H384.152V80.76H385.352V87.96H382.112ZM391.347 90.36V80.76H392.547V89.16H396.987V90.36H391.347ZM393.747 87.96V80.76H394.947V86.76H396.987V87.96H393.747ZM396.502 87.96V86.76H404.182V87.96H396.502ZM396.502 90.36V89.16H404.182V90.36H396.502ZM403.697 90.36V89.16H408.138V80.76H409.338V90.36H403.697ZM403.697 87.96V86.76H405.738V80.76H406.938V87.96H403.697ZM427.323 90.36V80.76H428.523V89.16H432.963V90.36H427.323ZM429.723 87.96V80.76H430.923V86.76H432.963V87.96H429.723ZM432.479 87.96V86.76H440.159V87.96H432.479ZM432.479 90.36V89.16H440.159V90.36H432.479ZM439.674 90.36V89.16H444.114V80.76H445.314V90.36H439.674ZM439.674 87.96V86.76H441.714V80.76H442.914V87.96H439.674ZM448.909 90.36V80.76H450.109V89.16H454.549V90.36H448.909ZM451.309 87.96V80.76H452.509V86.76H454.549V87.96H451.309ZM454.065 87.96V86.76H461.745V87.96H454.065ZM454.065 90.36V89.16H461.745V90.36H454.065ZM461.26 90.36V89.16H465.7V80.76H466.9V90.36H461.26ZM461.26 87.96V86.76H463.3V80.76H464.5V87.96H461.26ZM484.886 90.36V80.76H486.086V89.16H490.526V90.36H484.886ZM487.286 87.96V80.76H488.486V86.76H490.526V87.96H487.286ZM490.041 87.96V86.76H497.721V87.96H490.041ZM490.041 90.36V89.16H497.721V90.36H490.041ZM497.237 87.96V86.76H504.917V87.96H497.237ZM497.237 90.36V89.16H504.917V90.36H497.237ZM504.432 87.96V86.76H512.112V87.96H504.432ZM504.432 90.36V89.16H512.112V90.36H504.432ZM511.627 90.36V89.16H516.067V80.76H517.267V90.36H511.627ZM511.627 87.96V86.76H513.667V80.76H514.867V87.96H511.627Z" fill="white"/>
</svg>
